<?xml version="1.0" encoding="utf-8" ?>
<svg xmlns="http://www.w3.org/2000/svg" xmlns:xlink="http://www.w3.org/1999/xlink" width="550" height="973">
	<path fill="#CCCBCC" transform="scale(3.25444 3.25418)" d="M47.2275 36.9017C50.2234 32.2369 51.6377 30.8438 56.9706 29.3663C54.3648 32.008 50.9572 33.6701 49.116 37.0012C48.533 37.1799 47.8215 36.9923 47.2275 36.9017Z"/>
	<path fill="#5F5D5F" transform="scale(3.25444 3.25418)" d="M157.506 113.257C158.381 116.17 159.581 119.001 160.757 121.802C158.928 122.052 157.2 122.717 155.369 122.956Q153.861 119.745 152.626 116.42C154.497 115.587 156.145 114.84 157.506 113.257Z"/>
	<path fill="#979595" transform="scale(3.25444 3.25418)" d="M47.5645 248.36L48.1239 249.194C47.9708 252.425 47.0237 256.252 45.8549 259.276C45.3128 263.442 47.2647 267.104 47.7206 271.171C47.9221 272.967 47.4342 274.692 47.4891 276.45C47.4346 276.505 47.3867 276.559 47.3251 276.606C46.8701 276.953 46.464 276.967 45.9211 276.872C45.0152 276.714 44.0736 276.134 43.5731 275.355C42.4595 273.619 46.9334 251.385 47.5645 248.36Z"/>
	<path transform="scale(3.25444 3.25418)" d="M119.153 201.068C119.62 200.937 120.52 199.964 120.934 199.626C121.657 207.644 122.166 215.673 122.941 223.689C123.609 230.599 126.151 242.795 124.9 249.192L124.546 248.916C124.688 248.78 124.75 248.635 124.839 248.463L124.476 248.262L124.47 247.664L124.535 248.081C125.39 242.856 124.087 237.125 123.34 231.975C123.212 231.095 123.389 229.891 123.061 229.085C122.983 228.895 123.013 228.897 122.817 228.818C122.37 231.963 123.526 235.4 123.936 238.523C124.175 240.345 123.733 245.69 122.61 247.162L122.487 246.221C122.968 244.189 123.413 242.263 123.431 240.161C123.458 237.15 122.736 233.95 122.422 230.93C121.386 220.985 119.854 211.039 119.153 201.068Z"/>
	<path fill="#979595" transform="scale(3.25444 3.25418)" d="M116.71 81.9133C118.503 86.1807 119.613 90.8928 117.791 95.359C116.577 98.3332 112.707 101.066 113.04 104.318C112.533 103.792 112.095 103.159 111.642 102.584C112.688 101.33 113.476 100.017 114.217 98.5636C116.149 96.4362 112.643 91.9865 112.874 88.9481C113.083 86.1914 114.661 83.6919 116.71 81.9133Z"/>
	<path transform="scale(3.25444 3.25418)" d="M7.9839 119.325C10.1203 114.109 12.4451 108.942 14.735 103.791C16.7242 99.3166 18.6521 94.7159 21.121 90.4811C21.8312 90.6486 22.8606 90.7491 23.3504 91.324C22.629 93.5143 21.4633 95.5694 20.6595 97.7421C19.2569 101.533 18.1586 105.464 16.6005 109.193C15.7112 111.321 10.9212 119.948 11.083 121.454C10.0163 120.843 8.99713 120.028 7.9839 119.325Z"/>
	<path transform="scale(3.25444 3.25418)" d="M115.587 124.554C116.78 131.037 118.439 139.187 118.276 145.728C118.228 147.658 117.457 149.548 117.155 151.449C116.945 152.773 117.125 154.212 117.197 155.547C117.5 161.107 117.787 166.652 118.283 172.2C118.636 176.143 119.331 180.395 119.292 184.331C118.785 184.766 118.727 184.924 118.039 184.935C117.085 183.999 116.2 162.548 115.749 159.078C115.759 156.7 116.033 152.553 114.628 150.596C114.129 149.901 113.383 149.932 112.618 149.827C112.874 147.992 112.19 145.956 112.478 144.405L116.748 144.553C115.889 138.222 116.278 131.373 114.681 125.189L115.587 124.554Z"/>
	<path fill="#979595" transform="scale(3.25444 3.25418)" d="M155.369 122.956C157.2 122.717 158.928 122.052 160.757 121.802C160.264 124.429 157.426 126.419 155.338 127.849C150.683 131.038 142.783 134.878 137.022 133.827C136.734 133.775 136.567 133.553 136.354 133.36L136.114 132.345C136.935 131.952 137.249 131.316 137.942 130.785C138.885 130.064 140.173 129.656 141.275 129.227C141.635 128.996 141.958 128.703 142.287 128.431C146.219 126.01 151.027 124.522 155.369 122.956Z"/>
	<path fill="#1E1E1E" transform="scale(3.25444 3.25418)" d="M122.487 246.221L122.61 247.162C123.733 245.69 124.175 240.345 123.936 238.523C123.526 235.4 122.37 231.963 122.817 228.818C123.013 228.897 122.983 228.895 123.061 229.085C123.389 229.891 123.212 231.095 123.34 231.975C124.087 237.125 125.39 242.856 124.535 248.081L124.47 247.664L124.476 248.262L124.839 248.463C124.75 248.635 124.688 248.78 124.546 248.916L124.9 249.192C124.565 254.218 123.832 259.233 123.605 264.252C123.414 268.495 123.855 272.92 123.179 277.114C122.947 278.555 122.302 281.181 121.191 282.201C121.075 282.307 120.95 282.391 120.813 282.467L120.282 282.356C120.044 281.969 119.217 266.998 119.206 265.45Q119.198 261.677 119.547 257.92C120.415 256.283 121.859 248.537 122.487 246.221Z"/>
	<defs>
		<linearGradient id="gradient_0" gradientUnits="userSpaceOnUse" x1="109.83244" y1="282.66702" x2="103.28014" y2="247.1422">
			<stop offset="0" stop-color="#9F9E9E"/>
			<stop offset="1" stop-color="#C5C4C4"/>
		</linearGradient>
	</defs>
	<path fill="url(#gradient_0)" transform="scale(3.25444 3.25418)" d="M104.205 255.455C104.243 255.418 104.281 255.382 104.318 255.344C105.369 254.275 105.675 252.592 106.606 251.393C107.976 249.627 115.267 244.389 117.514 244.346C118.275 244.332 118.728 244.555 119.28 245.059C119.666 245.749 119.779 246.338 119.559 247.114C119.336 247.907 118.694 250.292 118.25 250.803L117.935 250.74C115.318 255.186 112.13 263.43 106.757 264.833C106.105 265.003 105.453 265.067 104.782 265.097C104.216 264.711 104.294 264.575 104.17 263.913Q104.029 263.133 103.898 262.352L103.616 262.162C100.905 265.061 99.5153 270.654 99.6501 274.491C99.6887 275.591 99.7895 276.749 100.06 277.82C100.495 279.546 102.421 283.327 101.805 284.896C101.097 285.049 100.688 284.964 100.06 284.556C96.92 282.514 91.559 274.674 90.8823 271.01L90.8179 270.646C90.3013 270.191 90.3317 268.1 90.2826 267.424C90.9279 266.692 90.9481 264.26 91.362 263.215C91.7491 262.237 92.4735 261.242 93.123 260.424C95.3702 257.594 101.155 254.045 102.529 251.73C102.737 251.77 102.939 251.68 103.136 251.619L103.298 250.624C103.645 252.209 103.816 253.897 104.205 255.455Z"/>
	<path fill="#B0AEAE" transform="scale(3.25444 3.25418)" d="M96.9599 265.336C97.1859 265.358 97.4301 265.383 97.6422 265.468C98.1655 265.679 98.4205 266.088 98.6194 266.587C98.4764 267.068 98.4321 267.053 97.9967 267.317C97.5325 267.641 97.2917 267.75 96.717 267.722L96.4309 267.278C96.4276 266.507 96.6162 266.02 96.9599 265.336Z"/>
	<path fill="#CCCBCC" transform="scale(3.25444 3.25418)" d="M102.529 251.73C103.115 252.307 103.174 253.085 103.177 253.871C103.181 254.988 102.828 255.725 102.047 256.504C100.987 257.56 99.6625 258.346 98.6041 259.399C97.1025 260.892 95.9576 263.373 94.8977 265.21C94.3534 266.153 92.2519 270.415 91.5594 270.867L90.8179 270.646C90.3013 270.191 90.3317 268.1 90.2826 267.424C90.9279 266.692 90.9481 264.26 91.362 263.215C91.7491 262.237 92.4735 261.242 93.123 260.424C95.3702 257.594 101.155 254.045 102.529 251.73Z"/>
	<path fill="#979595" transform="scale(3.25444 3.25418)" d="M86.1471 161.202L87.4942 160.973C88.1232 161.781 89.0682 162.248 89.9348 162.763C90.4492 163.235 91.078 163.49 91.705 163.777C92.3896 168.515 93.4138 173.205 94.1282 177.944C95.4755 186.88 96.4969 195.9 97.5673 204.876C98.4919 212.629 98.8438 220.427 99.7949 228.179Q100.793 235.796 102.102 243.366C102.497 245.731 103.13 248.242 103.298 250.624L103.136 251.619C102.939 251.68 102.737 251.77 102.529 251.73C101.155 254.045 95.3702 257.594 93.123 260.424C92.4735 261.242 91.7491 262.237 91.362 263.215C90.9481 264.26 90.9279 266.692 90.2826 267.424C89.5721 266.362 89.8707 262.629 89.7444 261.235C89.0229 253.266 87.6914 245.302 87.7501 237.286C87.8038 229.958 89.198 222.645 88.6464 215.31C88.1667 208.932 86.1414 202.772 85.1666 196.466C83.7927 187.576 84.5118 182.056 81.758 172.892C81.3203 172.203 80.6012 166.271 79.8963 164.511L81.8979 163.823C81.1881 163.106 80.4613 162.501 79.9697 161.602L80.1046 161.238C81.212 161.255 85.9439 164.429 86.9985 165.281C88.2679 166.306 89.0422 167.563 90.5974 168.258L90.6979 168.302C90.2484 167.419 89.7981 166.487 89.2369 165.668C88.3465 164.37 86.3777 162.751 86.1471 161.202Z"/>
	<path transform="scale(3.25444 3.25418)" d="M54.5772 106.205C56.0551 106.319 57.3177 107.101 58.5354 107.889C60.0533 108.566 60.9682 108.56 62.5607 108.138C64.6994 107.93 66.8936 107.996 69.0428 107.981C70.5467 108.028 71.1945 108.922 72.5088 109.48L73.8187 109.599C74.4164 109.926 74.8452 110.275 75.319 110.764C75.9527 111.457 76.5622 112.329 77.5394 112.484C77.8783 112.38 78.1717 112.282 78.5325 112.307C79.6218 113.285 80.5988 114.645 80.6931 116.161C80.7237 116.653 80.6548 116.786 80.3764 117.188C79.939 117.308 79.4331 117.498 78.9843 117.525C79.1603 117.722 79.4255 117.912 79.409 118.18C79.2869 120.153 77.5507 121.277 76.8787 122.964L77.3932 124.221C78.4158 124.109 79.1501 123.699 80.0339 123.21L80.17 122.583C80.3302 123.282 80.5664 124.03 80.5813 124.747L80.4494 125.084C79.2538 127.894 80.6934 131.914 80.2489 134.891L79.1055 140.231C78.9211 141.169 78.8023 142.338 77.9511 142.92C77.7443 143.062 77.516 143.182 77.2773 143.258C77.2584 143.307 77.2391 143.355 77.2207 143.404C76.8629 144.359 76.9527 145.32 77.3077 146.258C76.5632 147.22 75.4019 147.497 74.46 148.234C74.5846 148.811 74.6019 148.99 75.0014 149.445C73.8877 150.724 72.6352 151.377 71.3622 152.415C71.2965 151.423 71.1736 150.45 71.032 149.466C70.9769 150.417 71.0396 150.887 70.4905 151.69C69.7221 152.144 68.384 151.878 67.5338 151.724L67.409 152.017C66.4614 152.074 65.181 151.471 64.1512 151.364L63.0388 150.86C62.1291 151.051 61.1558 150.952 60.2316 150.92C56.9414 150.267 53.6751 150.023 50.3851 149.241C50.1181 152.544 49.8978 164.66 48.5123 166.526L48.2437 166.644C47.0148 166.46 45.6589 166.527 44.4118 166.49C44.7654 159.692 45.0241 152.629 46.5174 145.976C47.2773 142.591 48.6705 139.386 49.4063 135.99C48.6916 129.734 50.5994 120.313 53.6426 114.781C54.5481 112.066 54.4673 109.034 54.5772 106.205Z"/>
	<path fill="#5F5D5F" transform="scale(3.25444 3.25418)" d="M78.9843 117.525C79.1603 117.722 79.4255 117.912 79.409 118.18C79.2869 120.153 77.5507 121.277 76.8787 122.964C76.0383 122.245 75.2333 121.914 74.1962 121.556C75.5886 120.011 77.0002 118.299 78.9843 117.525Z"/>
	<path fill="#1E1E1E" transform="scale(3.25444 3.25418)" d="M67.1131 119.227C69.3565 119.659 70.7859 121.658 72.7873 122.526C72.4233 123.142 71.9747 123.78 71.7464 124.46C70.2301 123.29 69.483 122.741 67.4969 122.983L67.1976 122.58C67.277 121.481 67.1624 120.33 67.1131 119.227Z"/>
	<path fill="#1E1E1E" transform="scale(3.25444 3.25418)" d="M69.0428 107.981C70.5467 108.028 71.1945 108.922 72.5088 109.48L73.8187 109.599C74.4164 109.926 74.8452 110.275 75.319 110.764C74.7379 111.498 74.5763 113.905 74.3323 114.909C71.9735 115.251 69.9892 115.257 67.6468 114.89C66.8004 112.815 65.4367 111.466 63.7756 110.013C63.5591 109.824 62.9349 109.432 62.8057 109.223C62.6741 109.011 62.6211 108.406 62.5607 108.138C64.6994 107.93 66.8936 107.996 69.0428 107.981Z"/>
	<path fill="#979595" transform="scale(3.25444 3.25418)" d="M53.6426 114.781C55.2729 115.967 56.8656 116.716 58.7626 117.375C54.9511 123.17 52.7545 129.936 49.4063 135.99C48.6916 129.734 50.5994 120.313 53.6426 114.781Z"/>
	<path fill="#8A8889" transform="scale(3.25444 3.25418)" d="M60.2276 123.309C60.2589 124.382 60.3989 125.204 60.7888 126.206C62.2062 125.479 63.1383 124.105 64.5079 123.254C64.0171 124.24 62.6244 125.959 62.6326 126.982C63.0521 127.782 63.5619 127.792 64.3638 128.122C64.8139 128.212 65.7629 128.309 66.0666 128.661C65.8945 129.806 65.6371 131.097 65.72 132.252C66.0099 136.288 67.2437 137.416 66.2514 141.933L66.2392 142.115C66.2483 143.006 66.1545 144.039 66.4387 144.889C65.8179 145.654 65.592 146.056 64.6503 146.413C60.5136 145.203 55.8442 144.751 51.5477 144.688C52.6616 140.563 53.7522 136.404 54.6909 132.235C55.179 130.068 55.376 127.678 56.1325 125.597C57.3286 124.452 58.7289 123.925 60.2276 123.309Z"/>
	<path fill="#797878" transform="scale(3.25444 3.25418)" d="M60.2276 123.309C60.2589 124.382 60.3989 125.204 60.7888 126.206Q60.2 126.3 59.6038 126.308Q59.0077 126.316 58.4165 126.239Q57.8253 126.162 57.2514 126Q56.6774 125.839 56.1325 125.597C57.3286 124.452 58.7289 123.925 60.2276 123.309Z"/>
	<path fill="#979595" transform="scale(3.25444 3.25418)" d="M66.2392 142.115C65.9708 142.979 65.9887 143.973 65.9288 144.873L65.6081 144.995C65.2579 144.7 65.0332 144.555 64.8599 144.118C64.3298 142.779 63.9235 139.378 64.4854 138.077L64.8575 138.072C65.9784 139.296 66.1435 140.346 66.2514 141.933L66.2392 142.115Z"/>
	<path fill="#5F5D5F" transform="scale(3.25444 3.25418)" d="M60.2276 123.309C62.9088 122.715 64.6518 120.682 66.7247 119.108L67.1131 119.227C67.1624 120.33 67.277 121.481 67.1976 122.58L67.4969 122.983C69.483 122.741 70.2301 123.29 71.7464 124.46C71.9747 123.78 72.4233 123.142 72.7873 122.526C73.2727 122.251 73.7371 121.876 74.1962 121.556C75.2333 121.914 76.0383 122.245 76.8787 122.964L77.3932 124.221C78.4158 124.109 79.1501 123.699 80.0339 123.21L80.17 122.583C80.3302 123.282 80.5664 124.03 80.5813 124.747L80.4494 125.084C79.2538 127.894 80.6934 131.914 80.2489 134.891L79.1055 140.231C78.9211 141.169 78.8023 142.338 77.9511 142.92C77.7443 143.062 77.516 143.182 77.2773 143.258C77.2584 143.307 77.2391 143.355 77.2207 143.404C76.8629 144.359 76.9527 145.32 77.3077 146.258C76.5632 147.22 75.4019 147.497 74.46 148.234C74.5846 148.811 74.6019 148.99 75.0014 149.445C73.8877 150.724 72.6352 151.377 71.3622 152.415C71.2965 151.423 71.1736 150.45 71.032 149.466C70.9769 150.417 71.0396 150.887 70.4905 151.69C69.7221 152.144 68.384 151.878 67.5338 151.724C67.7436 150.687 68.0137 149.605 68.0854 148.548C68.1195 148.046 67.9911 147.542 67.6479 147.171C66.9139 146.378 65.6512 146.438 64.6503 146.413C65.592 146.056 65.8179 145.654 66.4387 144.889C66.1545 144.039 66.2483 143.006 66.2392 142.115L66.2514 141.933C67.2437 137.416 66.0099 136.288 65.72 132.252C65.6371 131.097 65.8945 129.806 66.0666 128.661C65.7629 128.309 64.8139 128.212 64.3638 128.122C63.5619 127.792 63.0521 127.782 62.6326 126.982C62.6244 125.959 64.0171 124.24 64.5079 123.254C63.1383 124.105 62.2062 125.479 60.7888 126.206C60.3989 125.204 60.2589 124.382 60.2276 123.309Z"/>
	<path fill="#363536" transform="scale(3.25444 3.25418)" d="M74.1291 140.709C74.7692 140.73 75.2669 140.83 75.8688 141.049C76.2722 141.517 76.2948 141.576 76.2581 142.192C75.8288 142.885 75.3181 143.099 74.6021 143.41C74.0274 143.406 73.6979 143.317 73.1958 143.038C72.8501 142.503 72.7753 142.398 72.7958 141.761C73.2596 141.089 73.3719 141.026 74.1291 140.709Z"/>
	<path fill="#363536" transform="scale(3.25444 3.25418)" d="M74.8192 135.104C75.7054 135.84 75.6651 136.271 75.8761 137.391C76.271 137.666 76.673 137.865 77.1075 138.068L77.2805 138.624C77.1164 139.263 76.3773 139.629 75.8573 139.98C75.1769 139.723 74.5739 139.187 74.0839 138.658Q73.9307 138.492 73.814 138.298Q73.6974 138.105 73.6221 137.892Q73.5468 137.678 73.516 137.454Q73.4851 137.231 73.5 137.005C73.5535 136.108 74.1843 135.642 74.8192 135.104Z"/>
	<path fill="#979595" transform="scale(3.25444 3.25418)" d="M71.0747 145.453C72.4237 146.248 73.4912 146.984 74.46 148.234C74.5846 148.811 74.6019 148.99 75.0014 149.445C73.8877 150.724 72.6352 151.377 71.3622 152.415C71.2965 151.423 71.1736 150.45 71.032 149.466C70.9604 148.143 71.0508 146.78 71.0747 145.453Z"/>
	<path fill="#363536" transform="scale(3.25444 3.25418)" d="M67.1976 122.58L67.4969 122.983C69.483 122.741 70.2301 123.29 71.7464 124.46L71.7844 127.999C70.317 127.525 68.3081 127.318 67.1881 126.273C66.5982 125.207 67.0301 123.741 67.1976 122.58Z"/>
	<path fill="#797878" transform="scale(3.25444 3.25418)" d="M64.3638 128.122C65.0956 127.983 65.5155 127.779 66.21 128.117C66.8995 129.777 66.2261 132.226 66.326 134.055C67.2094 134.144 68.1237 134.188 68.9944 134.361C69.2413 137.387 69.5573 141.495 67.4351 143.967C67.142 144.309 66.7863 144.606 66.4387 144.889C66.1545 144.039 66.2483 143.006 66.2392 142.115L66.2514 141.933C67.2437 137.416 66.0099 136.288 65.72 132.252C65.6371 131.097 65.8945 129.806 66.0666 128.661C65.7629 128.309 64.8139 128.212 64.3638 128.122Z"/>
	<path fill="#797878" transform="scale(3.25444 3.25418)" d="M74.1962 121.556C75.2333 121.914 76.0383 122.245 76.8787 122.964L77.3932 124.221C78.4158 124.109 79.1501 123.699 80.0339 123.21L80.17 122.583C80.3302 123.282 80.5664 124.03 80.5813 124.747L80.4494 125.084C79.2538 127.894 80.6934 131.914 80.2489 134.891L79.1055 140.231C79.0823 138.285 78.5691 134.787 77.1942 133.344C75.5718 131.642 73.8983 132.748 71.9917 132.729C71.2085 131.941 71.8501 129.158 71.7844 127.999L71.7464 124.46C71.9747 123.78 72.4233 123.142 72.7873 122.526C73.2727 122.251 73.7371 121.876 74.1962 121.556Z"/>
	<path fill="#5F5D5F" transform="scale(3.25444 3.25418)" d="M80.0339 123.21C80.0145 123.557 80.0736 124.321 79.9553 124.615C79.564 125.587 75.8829 130.005 75.002 130.952C75.2205 129.301 75.4934 127.638 75.5976 125.977L77.3932 124.221C78.4158 124.109 79.1501 123.699 80.0339 123.21Z"/>
	<defs>
		<linearGradient id="gradient_1" gradientUnits="userSpaceOnUse" x1="52.218678" y1="84.762314" x2="8.8621168" y2="88.34726">
			<stop offset="0" stop-color="#7D7C7C"/>
			<stop offset="1" stop-color="#CCC9CA"/>
		</linearGradient>
	</defs>
	<path fill="url(#gradient_1)" transform="scale(3.25444 3.25418)" d="M43.261 42.6982C44.2147 40.5684 45.7528 38.6895 47.2275 36.9017C47.8215 36.9923 48.533 37.1799 49.116 37.0012C48.461 39.2693 47.759 41.558 47.4089 43.8983C46.2083 46.7529 47.8203 51.8273 46.3217 54.0901C45.8604 54.089 45.7367 53.9834 45.3579 53.7455C47.1487 58.3857 49.3872 63.0446 51.4632 67.5807C50.8479 71.6965 50.9186 75.8323 50.4038 79.9145C50.59 81.8942 50.7644 90.0521 51.8891 91.1861C50.3467 93.797 48.3475 95.4846 46.0858 97.4473L45.8919 97.8114L45.1521 99.92C43.7428 104.75 41.0413 108.289 38.8997 112.731C36.2641 118.198 34.0983 123.918 31.5373 129.429C29.3351 128.636 27.0515 128.079 24.8783 127.217C21.4434 125.853 18.1002 124.109 14.6935 122.645C13.6965 122.217 11.7259 121.785 11.083 121.454C10.9212 119.948 15.7112 111.321 16.6005 109.193C18.1586 105.464 19.2569 101.533 20.6595 97.7421C21.4633 95.5694 22.629 93.5143 23.3504 91.324C22.8606 90.7491 21.8312 90.6486 21.121 90.4811L22.7561 87.725C23.6096 86.3483 24.334 84.8567 25.1059 83.4308C25.3426 82.4761 25.626 81.6327 26.0481 80.7433C29.5419 70.8181 36.43 62.2236 40.3306 52.4509C40.4822 49.2806 41.9499 45.5786 43.261 42.6982Z"/>
	<path fill="#979595" transform="scale(3.25444 3.25418)" d="M45.1521 99.92C44.8635 99.6978 44.5666 99.4854 44.2734 99.2692C44.1424 98.5943 44.0667 98.4221 44.3497 97.7975C45.0364 97.558 45.1901 97.6196 45.8919 97.8114L45.1521 99.92Z"/>
	<path fill="#B0AEAE" transform="scale(3.25444 3.25418)" d="M43.7182 79.1697C43.9535 79.3716 44.047 79.427 44.1575 79.7226C44.5822 80.8589 45.1061 82.3627 44.5025 83.5346C44.2132 84.0961 43.4551 84.1431 42.8896 84.2946C42.7475 84.1685 42.6155 84.0332 42.4869 83.8933C42.0067 83.371 41.8206 82.7988 41.8738 82.0881C41.9702 80.8006 42.7935 79.9513 43.7182 79.1697Z"/>
	<path fill="#B0AEAE" transform="scale(3.25444 3.25418)" d="M41.7741 64.8934C42.5655 66.3077 41.9451 72.1373 42.0921 74.18C42.6557 74.7014 43.3142 75.2516 43.7235 75.9057C44.2097 76.6828 44.1255 77.4832 43.9255 78.3359C42.9472 76.9307 42.1003 75.3657 41.2113 73.8984C41.1855 71.2277 40.6211 67.2858 41.7741 64.8934Z"/>
	<path fill="#5F5D5F" transform="scale(3.25444 3.25418)" d="M25.1059 83.4308C25.8532 83.703 26.2217 83.9843 26.575 84.735C27.2158 86.0965 27.5053 87.607 27.9908 89.0249C26.3302 88.5935 24.3319 88.3244 22.7561 87.725C23.6096 86.3483 24.334 84.8567 25.1059 83.4308Z"/>
	<path fill="#5F5D5F" transform="scale(3.25444 3.25418)" d="M45.2975 53.455C45.2315 54.17 45.2102 55.2364 44.7586 55.8164C44.3645 56.3225 44.0853 56.4412 43.4751 56.5229C43.2109 56.3157 43.0078 56.2007 42.867 55.8855C42.3304 54.6833 42.2154 51.6731 42.6846 50.4465C42.7957 50.1562 42.9609 50.1517 43.2309 50.0285C43.9636 50.1922 44.4482 50.8713 44.9348 51.4028L45.2975 53.455Z"/>
	<path fill="#B0AEAE" transform="scale(3.25444 3.25418)" d="M43.261 42.6982C44.2147 40.5684 45.7528 38.6895 47.2275 36.9017C47.8215 36.9923 48.533 37.1799 49.116 37.0012C48.461 39.2693 47.759 41.558 47.4089 43.8983C46.2083 46.7529 47.8203 51.8273 46.3217 54.0901C45.8604 54.089 45.7367 53.9834 45.3579 53.7455L45.2975 53.455L44.9348 51.4028C45.3247 49.2756 46.0714 46.2049 45.1955 44.1595C44.8062 43.2505 44.1206 43.0392 43.261 42.6982Z"/>
	<path fill="#797878" transform="scale(3.25444 3.25418)" d="M46.0858 97.4473C46.171 96.2976 47.1574 96.1749 47.2664 95.2098C47.3557 94.4191 46.9935 93.5216 46.9756 92.7175C46.9424 91.2236 47.2473 89.5989 47.4486 88.1207C47.6534 86.6172 49.0903 77.3502 50.0884 76.5907C50.595 77.019 49.8741 79.0777 50.4038 79.9145C50.59 81.8942 50.7644 90.0521 51.8891 91.1861C50.3467 93.797 48.3475 95.4846 46.0858 97.4473Z"/>
	<path transform="scale(3.25444 3.25418)" d="M40.3306 52.4509C40.9351 53.0482 41.1823 53.404 41.1979 54.3128C41.2983 60.1673 37.1909 65.6663 34.764 70.6833C32.9635 74.4056 31.5243 78.1911 29.3097 81.7081C28.2741 81.4096 27.0168 81.189 26.0481 80.7433C29.5419 70.8181 36.43 62.2236 40.3306 52.4509Z"/>
	<path fill="#363536" transform="scale(3.25444 3.25418)" d="M111.642 102.584C112.095 103.159 112.533 103.792 113.04 104.318C113.969 105.974 113.706 109.404 113.789 111.352C113.984 115.873 114.659 120.128 115.587 124.554L114.681 125.189C116.278 131.373 115.889 138.222 116.748 144.553L112.478 144.405C112.19 145.956 112.874 147.992 112.618 149.827C111.637 149.74 110.647 149.567 109.67 149.433C108.599 149.597 107.438 149.533 106.353 149.544C104.031 149.482 101.744 149.542 99.4247 149.671C100.197 153.4 100.859 157.269 102.144 160.862C99.528 161.639 96.8231 161.94 94.1131 162.184C93.9331 161.137 93.7401 160.119 93.4392 159.099L91.7955 158.98L91.4494 159.052L91.3258 159.636C90.7678 159.824 90.4817 159.888 90.2132 160.461C89.9292 161.067 89.9529 162.086 89.9348 162.763C89.0682 162.248 88.1232 161.781 87.4942 160.973L86.1471 161.202C86.3777 162.751 88.3465 164.37 89.2369 165.668C89.7981 166.487 90.2484 167.419 90.6979 168.302L90.5974 168.258C89.0422 167.563 88.2679 166.306 86.9985 165.281C85.9439 164.429 81.212 161.255 80.1046 161.238L79.9697 161.602C80.4613 162.501 81.1881 163.106 81.8979 163.823L79.8963 164.511C78.1033 163.334 76.364 158.798 75.6109 156.777C75.5323 155.906 75.7763 154.827 75.235 154.087L74.4594 153.968C73.5558 154.022 73.1146 153.864 72.3745 153.35C71.886 153.44 71.7615 153.496 71.2979 153.27L71.3622 152.415C72.6352 151.377 73.8877 150.724 75.0014 149.445C74.6019 148.99 74.5846 148.811 74.46 148.234C75.4019 147.497 76.5632 147.22 77.3077 146.258C76.9527 145.32 76.8629 144.359 77.2207 143.404C77.2391 143.355 77.2584 143.307 77.2773 143.258C77.516 143.182 77.7443 143.062 77.9511 142.92C78.8023 142.338 78.9211 141.169 79.1055 140.231L80.2489 134.891C80.6934 131.914 79.2538 127.894 80.4494 125.084L80.5813 124.747C80.5664 124.03 80.3302 123.282 80.17 122.583L80.0339 123.21C79.1501 123.699 78.4158 124.109 77.3932 124.221L76.8787 122.964C77.5507 121.277 79.2869 120.153 79.409 118.18C79.4255 117.912 79.1603 117.722 78.9843 117.525C79.4331 117.498 79.939 117.308 80.3764 117.188C80.6548 116.786 80.7237 116.653 80.6931 116.161C80.5988 114.645 79.6218 113.285 78.5325 112.307C78.1717 112.282 77.8783 112.38 77.5394 112.484C76.5622 112.329 75.9527 111.457 75.319 110.764C74.8452 110.275 74.4164 109.926 73.8187 109.599C74.4286 109.611 75.0043 109.35 75.568 109.142C77.0162 109.539 78.0287 109.587 79.5123 109.209C79.8103 108.905 80.7462 108.831 81.1816 108.747L81.439 108.564C89.2267 108.428 104.654 105.884 111.642 102.584Z"/>
	<path fill="#D9D8D9" transform="scale(3.25444 3.25418)" d="M80.17 122.583C80.7642 121.211 80.1938 119.289 81.3299 118.146C82.3018 118.86 82.6211 120.575 82.9359 121.696C81.9557 122.249 81.3801 123.854 80.5813 124.747C80.5664 124.03 80.3302 123.282 80.17 122.583Z"/>
	<path fill="#1E1E1E" transform="scale(3.25444 3.25418)" d="M108.823 143.881L111.329 144.107L112.478 144.405C112.19 145.956 112.874 147.992 112.618 149.827C111.637 149.74 110.647 149.567 109.67 149.433C108.829 147.803 108.993 145.669 108.823 143.881Z"/>
	<path fill="#B0AEAE" transform="scale(3.25444 3.25418)" d="M91.2484 150.763C92.7615 152.293 92.6746 156.938 93.4392 159.099L91.7955 158.98L91.4494 159.052L91.3258 159.636C90.7678 159.824 90.4817 159.888 90.2132 160.461C89.9292 161.067 89.9529 162.086 89.9348 162.763C89.0682 162.248 88.1232 161.781 87.4942 160.973Q87.2487 160.18 87.0887 159.365C86.9252 158.493 87.0302 157.9 87.5153 157.192L87.5452 157.074C87.75 156.989 87.899 156.89 88.0454 156.724C89.4899 155.087 89.8151 153.374 89.6937 151.252L90.1529 151.217L91.2484 150.763Z"/>
	<path fill="#8A8889" transform="scale(3.25444 3.25418)" d="M89.6937 151.252L90.1529 151.217C89.69 154.291 91.04 156.129 91.7955 158.98L91.4494 159.052C90.068 159.112 88.6438 157.899 87.5153 157.192L87.5452 157.074C87.75 156.989 87.899 156.89 88.0454 156.724C89.4899 155.087 89.8151 153.374 89.6937 151.252Z"/>
	<path fill="#D9D8D9" transform="scale(3.25444 3.25418)" d="M87.5153 157.192C88.6438 157.899 90.068 159.112 91.4494 159.052L91.3258 159.636C90.7678 159.824 90.4817 159.888 90.2132 160.461C89.9292 161.067 89.9529 162.086 89.9348 162.763C89.0682 162.248 88.1232 161.781 87.4942 160.973Q87.2487 160.18 87.0887 159.365C86.9252 158.493 87.0302 157.9 87.5153 157.192Z"/>
	<path fill="#FEFEFE" transform="scale(3.25444 3.25418)" d="M80.5813 124.747C81.3801 123.854 81.9557 122.249 82.9359 121.696L84.2433 125.127C84.4854 125.981 84.7546 126.833 84.8765 127.714C86.9078 133.726 88.84 139.716 90.4922 145.844C87.8376 146.343 85.1949 146.622 82.491 146.525C81.3909 146.699 80.2667 146.831 79.2008 147.162C78.8396 147.105 78.4847 146.953 78.1402 146.832L78.0862 146.488L78.6191 146.193C77.9557 145.347 78.2528 144.38 77.8423 143.44L77.2773 143.258C77.516 143.182 77.7443 143.062 77.9511 142.92C78.8023 142.338 78.9211 141.169 79.1055 140.231L80.2489 134.891C80.6934 131.914 79.2538 127.894 80.4494 125.084L80.5813 124.747Z"/>
	<path fill="#979595" transform="scale(3.25444 3.25418)" d="M78.6191 146.193C79.3059 145.102 79.8617 143.867 80.1237 142.603C80.2003 144.148 80.6714 145.118 81.8462 146.144C82.0466 146.319 82.2394 146.434 82.491 146.525C81.3909 146.699 80.2667 146.831 79.2008 147.162C78.8396 147.105 78.4847 146.953 78.1402 146.832L78.0862 146.488L78.6191 146.193Z"/>
	<defs>
		<linearGradient id="gradient_2" gradientUnits="userSpaceOnUse" x1="77.365646" y1="143.83128" x2="80.845673" y2="141.19798">
			<stop offset="0" stop-color="#747774"/>
			<stop offset="1" stop-color="#888487"/>
		</linearGradient>
	</defs>
	<path fill="url(#gradient_2)" transform="scale(3.25444 3.25418)" d="M79.1055 140.231L80.2489 134.891C80.3081 136.272 80.5428 137.352 80.868 138.685Q80.4415 140.634 80.1237 142.603C79.8617 143.867 79.3059 145.102 78.6191 146.193C77.9557 145.347 78.2528 144.38 77.8423 143.44L77.2773 143.258C77.516 143.182 77.7443 143.062 77.9511 142.92C78.8023 142.338 78.9211 141.169 79.1055 140.231Z"/>
	<path fill="#CCCBCC" transform="scale(3.25444 3.25418)" d="M80.5813 124.747C81.3801 123.854 81.9557 122.249 82.9359 121.696L84.2433 125.127C84.4854 125.981 84.7546 126.833 84.8765 127.714C83.0654 128.981 81.6713 136.249 80.868 138.685C80.5428 137.352 80.3081 136.272 80.2489 134.891C80.6934 131.914 79.2538 127.894 80.4494 125.084L80.5813 124.747Z"/>
	<path fill="#FEFEFE" transform="scale(3.25444 3.25418)" d="M80.5813 124.747C81.3801 123.854 81.9557 122.249 82.9359 121.696L84.2433 125.127C83.2472 125.549 81.8643 126.493 80.7924 126.374C80.3678 125.917 80.4651 125.694 80.4494 125.084L80.5813 124.747Z"/>
	<path fill="#797878" transform="scale(3.25444 3.25418)" d="M77.2773 143.258L77.8423 143.44C78.2528 144.38 77.9557 145.347 78.6191 146.193L78.0862 146.488L78.1402 146.832C78.4847 146.953 78.8396 147.105 79.2008 147.162C80.2667 146.831 81.3909 146.699 82.491 146.525C85.1949 146.622 87.8376 146.343 90.4922 145.844C90.945 146.082 90.9448 146.124 91.1028 146.617C91.4228 147.614 91.7177 149.804 91.2484 150.763L90.1529 151.217L89.6937 151.252C89.8151 153.374 89.4899 155.087 88.0454 156.724C87.899 156.89 87.75 156.989 87.5452 157.074L87.5153 157.192C87.0302 157.9 86.9252 158.493 87.0887 159.365Q87.2487 160.18 87.4942 160.973L86.1471 161.202C86.3777 162.751 88.3465 164.37 89.2369 165.668C89.7981 166.487 90.2484 167.419 90.6979 168.302L90.5974 168.258C89.0422 167.563 88.2679 166.306 86.9985 165.281C85.9439 164.429 81.212 161.255 80.1046 161.238L79.9697 161.602C80.4613 162.501 81.1881 163.106 81.8979 163.823L79.8963 164.511C78.1033 163.334 76.364 158.798 75.6109 156.777C75.5323 155.906 75.7763 154.827 75.235 154.087L74.4594 153.968C73.5558 154.022 73.1146 153.864 72.3745 153.35C71.886 153.44 71.7615 153.496 71.2979 153.27L71.3622 152.415C72.6352 151.377 73.8877 150.724 75.0014 149.445C74.6019 148.99 74.5846 148.811 74.46 148.234C75.4019 147.497 76.5632 147.22 77.3077 146.258C76.9527 145.32 76.8629 144.359 77.2207 143.404C77.2391 143.355 77.2584 143.307 77.2773 143.258Z"/>
	<path fill="#979595" transform="scale(3.25444 3.25418)" d="M76.7235 152.583C78.1795 152.388 78.4034 153.49 80.1642 152.699C81.1707 152.654 82.3549 152.451 83.2581 152.974C83.6051 153.339 83.8057 153.659 84.0082 154.119L82.0327 154.658Q81.7959 154.492 81.5318 154.374C80.4885 153.906 78.7807 153.288 77.6716 153.719L77.866 154.79C77.383 154.128 77.0688 153.324 76.7235 152.583Z"/>
	<path fill="#B0AEAE" transform="scale(3.25444 3.25418)" d="M75.0014 149.445C75.2822 150.57 75.7709 151.895 75.8297 153.041C75.4003 153.394 75.3729 153.448 74.7873 153.416C74.284 152.877 74.0568 152.396 73.2905 152.36C72.9638 152.675 72.6339 152.975 72.3745 153.35C71.886 153.44 71.7615 153.496 71.2979 153.27L71.3622 152.415C72.6352 151.377 73.8877 150.724 75.0014 149.445Z"/>
	<path fill="#B0AEAE" transform="scale(3.25444 3.25418)" d="M77.866 154.79L77.6716 153.719C78.7807 153.288 80.4885 153.906 81.5318 154.374Q81.7959 154.492 82.0327 154.658C80.8354 155.332 80.5143 156.095 80.066 157.319C79.019 156.655 78.2995 155.971 77.866 154.79Z"/>
	<path fill="#CCCBCC" transform="scale(3.25444 3.25418)" d="M82.0327 154.658L84.0082 154.119C85.37 154.969 86.4066 155.958 87.5452 157.074L87.5153 157.192C87.0302 157.9 86.9252 158.493 87.0887 159.365Q87.2487 160.18 87.4942 160.973L86.1471 161.202C84.0793 160.094 81.7769 158.941 80.066 157.319C80.5143 156.095 80.8354 155.332 82.0327 154.658Z"/>
	<path transform="scale(3.25444 3.25418)" d="M90.4922 145.844C90.945 146.082 90.9448 146.124 91.1028 146.617C91.4228 147.614 91.7177 149.804 91.2484 150.763L90.1529 151.217L89.6937 151.252C89.8151 153.374 89.4899 155.087 88.0454 156.724C87.899 156.89 87.75 156.989 87.5452 157.074C86.4066 155.958 85.37 154.969 84.0082 154.119C83.8057 153.659 83.6051 153.339 83.2581 152.974C82.3549 152.451 81.1707 152.654 80.1642 152.699L80.1443 152.495C79.3767 151.16 79.354 148.709 79.2008 147.162C80.2667 146.831 81.3909 146.699 82.491 146.525C85.1949 146.622 87.8376 146.343 90.4922 145.844Z"/>
	<path fill="#5F5D5F" transform="scale(3.25444 3.25418)" d="M80.1443 152.495C83.4231 152.526 86.4917 151.876 89.6937 151.252C89.8151 153.374 89.4899 155.087 88.0454 156.724C87.899 156.89 87.75 156.989 87.5452 157.074C86.4066 155.958 85.37 154.969 84.0082 154.119C83.8057 153.659 83.6051 153.339 83.2581 152.974C82.3549 152.451 81.1707 152.654 80.1642 152.699L80.1443 152.495Z"/>
	<path fill="#FEFEFE" transform="scale(3.25444 3.25418)" d="M110.296 113.12C111.003 113.045 111.663 112.907 112.292 113.324C113.171 114.44 114.283 123.217 114.681 125.189C116.278 131.373 115.889 138.222 116.748 144.553L112.478 144.405L111.329 144.107L108.823 143.881C105.256 143.447 101.61 143.809 98.0409 144.067C95.6962 134.809 91.7305 125.249 86.6578 117.149Q98.5094 115.325 110.296 113.12Z"/>
	<path fill="#CCCBCC" transform="scale(3.25444 3.25418)" d="M110.296 113.12C111.003 113.045 111.663 112.907 112.292 113.324C113.171 114.44 114.283 123.217 114.681 125.189C116.278 131.373 115.889 138.222 116.748 144.553L112.478 144.405L111.329 144.107C111.561 144.018 111.732 143.874 111.931 143.727C113.063 139.425 113.068 131.85 112.311 127.454C111.487 122.663 110.07 118.039 110.296 113.12Z"/>
	<path fill="#FEFEFE" transform="scale(3.25444 3.25418)" d="M109.67 149.433C110.647 149.567 111.637 149.74 112.618 149.827C113.383 149.932 114.129 149.901 114.628 150.596C116.033 152.553 115.759 156.7 115.749 159.078C116.2 162.548 117.085 183.999 118.039 184.935C118.727 184.924 118.785 184.766 119.292 184.331L119.564 186.367L120.187 190.705L120.468 195.293L120.511 195.947Q120.743 197.784 120.934 199.626C120.52 199.964 119.62 200.937 119.153 201.068C119.854 211.039 121.386 220.985 122.422 230.93C122.736 233.95 123.458 237.15 123.431 240.161C123.413 242.263 122.968 244.189 122.487 246.221C121.859 248.537 120.415 256.283 119.547 257.92C118.859 255.198 117.526 253.832 118.25 250.803C118.694 250.292 119.336 247.907 119.559 247.114C119.779 246.338 119.666 245.749 119.28 245.059C118.728 244.555 118.275 244.332 117.514 244.346C115.267 244.389 107.976 249.627 106.606 251.393C105.675 252.592 105.369 254.275 104.318 255.344C104.281 255.382 104.243 255.418 104.205 255.455C103.816 253.897 103.645 252.209 103.298 250.624C103.13 248.242 102.497 245.731 102.102 243.366Q100.793 235.796 99.7949 228.179C98.8438 220.427 98.4919 212.629 97.5673 204.876C96.4969 195.9 95.4755 186.88 94.1282 177.944C93.4138 173.205 92.3896 168.515 91.705 163.777C91.078 163.49 90.4492 163.235 89.9348 162.763C89.9529 162.086 89.9292 161.067 90.2132 160.461C90.4817 159.888 90.7678 159.824 91.3258 159.636L91.4494 159.052L91.7955 158.98L93.4392 159.099C93.7401 160.119 93.9331 161.137 94.1131 162.184C96.8231 161.94 99.528 161.639 102.144 160.862C100.859 157.269 100.197 153.4 99.4247 149.671C101.744 149.542 104.031 149.482 106.353 149.544C107.438 149.533 108.599 149.597 109.67 149.433Z"/>
	<path fill="#CCCBCC" transform="scale(3.25444 3.25418)" d="M89.9348 162.763C89.9529 162.086 89.9292 161.067 90.2132 160.461C90.4817 159.888 90.7678 159.824 91.3258 159.636C91.5255 160.994 91.8142 162.403 91.705 163.777C91.078 163.49 90.4492 163.235 89.9348 162.763Z"/>
	<path fill="#B0AEAE" transform="scale(3.25444 3.25418)" d="M107.831 175.364C109.411 176.056 110.238 178.164 112.035 178.833C112.016 178.843 111.996 178.854 111.976 178.863Q111.675 179.01 111.368 179.146C110.354 179.586 109.624 179.541 108.608 179.132C108.497 179.227 108.385 179.318 108.264 179.398C107.23 180.081 105.829 179.913 104.683 179.674C104.79 179.639 104.893 179.601 104.993 179.551C106.271 178.901 107.404 176.674 107.831 175.364Z"/>
	<path fill="#797878" transform="scale(3.25444 3.25418)" d="M119.564 186.367L120.187 190.705L120.468 195.293L120.511 195.947C120.229 196.248 120.018 196.335 119.62 196.43C119.399 196.289 119.159 196.118 118.907 196.041C118.409 195.889 118.31 195.974 117.866 196.221L117.643 197.63L117.241 197.728C117.103 197.588 116.982 197.44 116.895 197.263C116.047 195.534 116.252 191.143 116.816 189.321C117.643 189.134 117.983 190.022 118.823 190.189C118.844 190.167 118.867 190.146 118.887 190.122C119.509 189.401 119.611 187.4 119.568 186.448L119.564 186.367Z"/>
	<path fill="#D9D8D9" transform="scale(3.25444 3.25418)" d="M120.187 190.705L120.468 195.293C119.911 195.33 119.293 195.104 118.83 194.799C118.311 194.459 118.299 194.097 118.194 193.536C118.546 192.217 119.271 191.634 120.187 190.705Z"/>
	<path fill="#CCCBCC" transform="scale(3.25444 3.25418)" d="M109.67 149.433C110.647 149.567 111.637 149.74 112.618 149.827C113.383 149.932 114.129 149.901 114.628 150.596C116.033 152.553 115.759 156.7 115.749 159.078C115.67 158.708 115.587 158.211 115.373 157.896C113.88 155.706 110.615 151.223 108.345 150C107.786 149.699 106.979 149.639 106.353 149.544C107.438 149.533 108.599 149.597 109.67 149.433Z"/>
	<defs>
		<linearGradient id="gradient_3" gradientUnits="userSpaceOnUse" x1="73.621956" y1="219.71655" x2="49.743622" y2="219.2986">
			<stop offset="0" stop-color="#A8A6A7"/>
			<stop offset="1" stop-color="#E8E7E7"/>
		</linearGradient>
	</defs>
	<path fill="url(#gradient_3)" transform="scale(3.25444 3.25418)" d="M50.3851 149.241C53.6751 150.023 56.9414 150.267 60.2316 150.92C61.1558 150.952 62.1291 151.051 63.0388 150.86L64.1512 151.364C65.181 151.471 66.4614 152.074 67.409 152.017L67.5338 151.724C68.384 151.878 69.7221 152.144 70.4905 151.69C71.0396 150.887 70.9769 150.417 71.032 149.466C71.1736 150.45 71.2965 151.423 71.3622 152.415L71.2979 153.27C71.7615 153.496 71.886 153.44 72.3745 153.35C73.1146 153.864 73.5558 154.022 74.4594 153.968L75.235 154.087C75.7763 154.827 75.5323 155.906 75.6109 156.777C76.364 158.798 78.1033 163.334 79.8963 164.511C80.6012 166.271 81.3203 172.203 81.758 172.892C80.9452 174.998 80.6457 188.853 80.3853 192.011C79.8257 198.796 78.3613 205.522 77.6297 212.296C77.0511 217.653 75.3817 250.867 73.747 253.263C73.4752 257.154 71.4714 272.297 68.8805 274.582C68.6902 274.75 68.47 274.867 68.2374 274.963C66.7805 275.935 57.1312 277.474 55.3607 277.159C55.0379 277.102 54.7454 276.967 54.5147 276.73C54.3616 276.809 54.202 276.884 54.0365 276.933C52.6392 277.352 48.7942 277.105 47.4891 276.45C47.4342 274.692 47.9221 272.967 47.7206 271.171C47.2647 267.104 45.3128 263.442 45.8549 259.276C47.0237 256.252 47.9708 252.425 48.1239 249.194L47.5645 248.36C49.1311 239.059 47.5744 229.209 47.4764 219.802C47.3624 208.871 47.9454 197.954 47.7924 187.034C47.727 182.362 46.672 170.668 48.2437 166.644L48.5123 166.526C49.8978 164.66 50.1181 152.544 50.3851 149.241Z"/>
	<path fill="#B0AEAE" transform="scale(3.25444 3.25418)" d="M63.6959 246.095L64.5147 246.389C64.8619 246.866 64.977 246.918 64.9466 247.526C64.3929 247.83 64.2261 247.699 63.623 247.572C63.2256 247.791 63.0405 247.732 62.601 247.694L63.0431 248.243L62.9053 248.346L62.4527 247.803C62.5286 247.176 63.28 246.55 63.6959 246.095Z"/>
	<path fill="#D9D8D9" transform="scale(3.25444 3.25418)" d="M56.2933 158.212C57.4303 159.715 57.1206 163.002 56.8741 164.812C56.5736 167.018 55.8785 169.21 55.2132 171.33L55.3031 171.331L55.0532 171.877L54.4923 171.17C54.4819 171.149 54.4708 171.129 54.4611 171.109C53.2224 168.469 55.3692 161.024 56.2933 158.212Z"/>
	<path fill="#B0AEAE" transform="scale(3.25444 3.25418)" d="M56.4981 157.373C56.4788 156.909 56.6513 156.291 56.7677 155.835C56.9254 155.218 57.0428 154.832 57.5865 154.505L58.0782 154.959C58.4367 157.218 59.2967 159.573 59.4611 161.837C59.5348 162.852 58.6013 163.728 58.9371 164.749L59.3399 165.02C59.0367 166.872 58.956 169.297 58.1743 170.992C57.8337 171.73 57.5721 171.825 56.8567 172.087C57.7395 169.903 57.8482 167.519 57.8802 165.19C57.9081 163.161 57.9947 158.909 56.4981 157.373Z"/>
	<path fill="#FEFEFE" transform="scale(3.25444 3.25418)" d="M49.321 238.453L49.8024 238.316C49.8587 237.85 49.8666 237.426 49.8327 236.959C50.3084 238.421 49.7069 245.843 49.6751 248.045L49.6207 247.713C49.6197 249.283 50.0455 260.949 49.7904 261.365C50.5213 262.105 51.3027 262.859 51.79 263.789C53.0413 266.176 54.612 273.723 57.6291 274.108C56.9066 275.185 56.0625 276.071 54.9939 276.814L54.5147 276.73C54.3616 276.809 54.202 276.884 54.0365 276.933C52.6392 277.352 48.7942 277.105 47.4891 276.45C47.4342 274.692 47.9221 272.967 47.7206 271.171C47.2647 267.104 45.3128 263.442 45.8549 259.276C47.0237 256.252 47.9708 252.425 48.1239 249.194C48.8146 248.312 49.1741 240.173 49.321 238.453Z"/>
	<defs>
		<linearGradient id="gradient_4" gradientUnits="userSpaceOnUse" x1="52.979012" y1="149.96625" x2="54.318241" y2="238.4157">
			<stop offset="0" stop-color="#858484"/>
			<stop offset="1" stop-color="#A2A1A1"/>
		</linearGradient>
	</defs>
	<path fill="url(#gradient_4)" transform="scale(3.25444 3.25418)" d="M50.3851 149.241C53.6751 150.023 56.9414 150.267 60.2316 150.92C59.6766 151.964 59.4335 152.529 59.6791 153.726L59.5817 154.961C59.0033 155.102 58.6527 155.124 58.0782 154.959L57.5865 154.505C57.0428 154.832 56.9254 155.218 56.7677 155.835C56.6513 156.291 56.4788 156.909 56.4981 157.373L56.2933 158.212C55.3692 161.024 53.2224 168.469 54.4611 171.109C54.4708 171.129 54.4819 171.149 54.4923 171.17C54.1106 173.099 54.4893 175.098 54.2041 177.043C52.0332 191.85 51.4305 206.796 50.4923 221.722C50.1441 227.262 49.9834 232.948 49.321 238.453C49.1741 240.173 48.8146 248.312 48.1239 249.194L47.5645 248.36C49.1311 239.059 47.5744 229.209 47.4764 219.802C47.3624 208.871 47.9454 197.954 47.7924 187.034C47.727 182.362 46.672 170.668 48.2437 166.644L48.5123 166.526C49.8978 164.66 50.1181 152.544 50.3851 149.241Z"/>
	<defs>
		<linearGradient id="gradient_5" gradientUnits="userSpaceOnUse" x1="79.127213" y1="154.09882" x2="55.347065" y2="249.0146">
			<stop offset="0" stop-color="#6F6F6F"/>
			<stop offset="1" stop-color="#939292"/>
		</linearGradient>
	</defs>
	<path fill="url(#gradient_5)" transform="scale(3.25444 3.25418)" d="M71.032 149.466C71.1736 150.45 71.2965 151.423 71.3622 152.415L71.2979 153.27C71.7615 153.496 71.886 153.44 72.3745 153.35C73.1146 153.864 73.5558 154.022 74.4594 153.968L75.235 154.087C75.7763 154.827 75.5323 155.906 75.6109 156.777C76.364 158.798 78.1033 163.334 79.8963 164.511C80.6012 166.271 81.3203 172.203 81.758 172.892C80.9452 174.998 80.6457 188.853 80.3853 192.011C79.8257 198.796 78.3613 205.522 77.6297 212.296C77.0511 217.653 75.3817 250.867 73.747 253.263L73.5758 253.429L73.3648 253.394C72.9271 250.048 73.2525 246.852 73.3908 243.505C73.3683 243.501 73.3452 243.498 73.3234 243.491C72.3305 243.173 70.1022 240.633 69.6565 239.695C68.4699 232.659 70.6666 227.316 71.2558 220.558C71.5225 217.499 71.6475 214.179 71.4874 211.113C71.3469 208.421 70.9285 205.769 71.0509 203.066C71.1905 199.987 72.0622 196.95 72.5045 193.904C72.8396 191.596 72.7664 189.267 72.7253 186.942C71.4865 185.409 72.8366 173.836 70.7005 171.728C70.4012 171.433 69.9852 171.203 69.666 170.899C69.5794 168.581 70.309 166.286 70.345 163.932C70.282 163.621 70.2862 163.184 70.0179 163.004C69.0589 162.361 66.2641 161.947 65.1477 162.197C64.6378 162.311 64.5522 162.461 64.2508 162.85C64.0561 163.883 64.69 166.272 64.2672 166.995L63.8056 166.987C63.3462 166.225 64.0919 165.503 63.5199 164.821C62.7006 164.958 62.3682 165.597 61.6928 165.847C61.5315 165.907 59.9612 165.045 59.3399 165.02L58.9371 164.749C58.6013 163.728 59.5348 162.852 59.4611 161.837C59.2967 159.573 58.4367 157.218 58.0782 154.959C58.6527 155.124 59.0033 155.102 59.5817 154.961L59.6791 153.726C59.4335 152.529 59.6766 151.964 60.2316 150.92C61.1558 150.952 62.1291 151.051 63.0388 150.86L64.1512 151.364C65.181 151.471 66.4614 152.074 67.409 152.017L67.5338 151.724C68.384 151.878 69.7221 152.144 70.4905 151.69C71.0396 150.887 70.9769 150.417 71.032 149.466Z"/>
	<path fill="#5F5D5F" transform="scale(3.25444 3.25418)" d="M74.4594 153.968L75.235 154.087C75.7763 154.827 75.5323 155.906 75.6109 156.777L75.1376 156.898C74.6389 156.54 74.3142 156.27 74.1537 155.639C73.9683 154.911 74.1089 154.58 74.4594 153.968Z"/>
	<path fill="#363536" transform="scale(3.25444 3.25418)" d="M60.2316 150.92C61.1558 150.952 62.1291 151.051 63.0388 150.86C62.8934 151.773 62.7762 152.918 61.9667 153.508C61.3527 153.955 60.3799 153.846 59.6791 153.726C59.4335 152.529 59.6766 151.964 60.2316 150.92Z"/>
	<path fill="#5F5D5F" transform="scale(3.25444 3.25418)" d="M64.1512 151.364C65.181 151.471 66.4614 152.074 67.409 152.017C67.6078 152.454 67.8918 152.965 67.8742 153.455C67.8592 153.875 67.7448 153.92 67.4421 154.198C66.874 154.346 66.3545 154.445 65.7749 154.296C65.0074 154.099 63.9053 153.556 63.4988 152.856C63.5123 152.087 63.6759 151.97 64.1512 151.364Z"/>
	<path fill="#979595" transform="scale(3.25444 3.25418)" d="M58.0782 154.959C58.6527 155.124 59.0033 155.102 59.5817 154.961C60.5926 157.071 61.2482 158.471 63.1837 159.912C64.7047 159.999 69.1685 159.423 70.0393 160.425C70.7474 161.24 70.4925 162.874 70.4759 163.897C70.5033 165.248 70.4776 166.687 70.8071 168.002C71.2275 169.681 72.285 171.107 72.8286 172.734C73.3759 174.373 74.4184 181.446 73.7648 183.006C73.9798 182.811 73.9773 182.767 74.0446 182.497L73.6329 182.401C73.3862 178.465 73.6891 175.021 71.8073 171.369L71.5493 171.274C71.639 175.485 73.6394 182.895 72.7253 186.942C71.4865 185.409 72.8366 173.836 70.7005 171.728C70.4012 171.433 69.9852 171.203 69.666 170.899C69.5794 168.581 70.309 166.286 70.345 163.932C70.282 163.621 70.2862 163.184 70.0179 163.004C69.0589 162.361 66.2641 161.947 65.1477 162.197C64.6378 162.311 64.5522 162.461 64.2508 162.85C64.0561 163.883 64.69 166.272 64.2672 166.995L63.8056 166.987C63.3462 166.225 64.0919 165.503 63.5199 164.821C62.7006 164.958 62.3682 165.597 61.6928 165.847C61.5315 165.907 59.9612 165.045 59.3399 165.02L58.9371 164.749C58.6013 163.728 59.5348 162.852 59.4611 161.837C59.2967 159.573 58.4367 157.218 58.0782 154.959Z"/>
	<path fill="#FEFEFE" transform="scale(3.25444 3.25418)" d="M76.8898 17.1226Q77.0774 17.0066 77.271 16.9008C82.3904 14.1155 93.9601 12.6165 99.6042 14.2619C100.16 15.9398 100.628 20.1474 101.576 21.3147C104.215 21.0024 107.034 21.5901 109.496 22.5375C115.366 24.4927 120.924 26.5896 124.735 31.7958C134.552 46.2681 138.117 63.7984 145.592 79.4175C145.717 81.6203 146.794 83.3635 147.399 85.4283L148.094 86.7468C148.298 87.8154 148.4 89.4771 149.035 90.3626C150.244 91.7735 156.158 109.991 157.506 113.257C156.145 114.84 154.497 115.587 152.626 116.42Q153.861 119.745 155.369 122.956C151.027 124.522 146.219 126.01 142.287 128.431C141.958 128.703 141.635 128.996 141.275 129.227C140.173 129.656 138.885 130.064 137.942 130.785C137.249 131.316 136.935 131.952 136.114 132.345C133.619 126.096 131.593 119.715 129.241 113.421C126.256 106.786 122.976 99.3335 120.972 92.3633C119.956 88.834 119.248 79.169 117.881 76.733L116.962 77.1218C116.919 77.8267 116.733 77.9463 116.303 78.4868C116.289 79.4125 116.175 81.1109 116.71 81.9133C114.661 83.6919 113.083 86.1914 112.874 88.9481C112.643 91.9865 116.149 96.4362 114.217 98.5636C113.476 100.017 112.688 101.33 111.642 102.584C104.654 105.884 89.2267 108.428 81.439 108.564L81.1816 108.747C80.7462 108.831 79.8103 108.905 79.5123 109.209C78.0287 109.587 77.0162 109.539 75.568 109.142C75.0043 109.35 74.4286 109.611 73.8187 109.599L72.5088 109.48C71.1945 108.922 70.5467 108.028 69.0428 107.981C66.8936 107.996 64.6994 107.93 62.5607 108.138C60.9682 108.56 60.0533 108.566 58.5354 107.889C57.3177 107.101 56.0551 106.319 54.5772 106.205C54.6681 104.952 53.0533 102.821 52.7621 101.367C52.099 98.0562 53.0141 94.4412 51.8891 91.1861C50.7644 90.0521 50.59 81.8942 50.4038 79.9145C50.9186 75.8323 50.8479 71.6965 51.4632 67.5807C49.3872 63.0446 47.1487 58.3857 45.3579 53.7455C45.7367 53.9834 45.8604 54.089 46.3217 54.0901C47.8203 51.8273 46.2083 46.7529 47.4089 43.8983C47.759 41.558 48.461 39.2693 49.116 37.0012C50.9572 33.6701 54.3648 32.008 56.9706 29.3663C56.9894 29.3308 57.0067 29.2945 57.027 29.2598C57.6378 28.2178 62.2739 26.7015 63.4312 26.4127L64.2474 26.1012C66.2218 25.2312 68.6765 24.8236 70.7706 24.2822C72.7549 23.5927 72.9593 20.2921 74.4898 18.722C75.1534 18.0413 76.0678 17.5842 76.8898 17.1226Z"/>
	<path fill="#CCCBCC" transform="scale(3.25444 3.25418)" d="M141.152 88.2405L142.505 85.9559C144.192 85.9998 145.328 87.0839 146.91 87.1482C144.947 87.2069 143.019 87.6586 141.152 88.2405Z"/>
	<path fill="#B0AEAE" transform="scale(3.25444 3.25418)" d="M112.796 71.0978C112.488 70.0762 112.056 68.6958 112.278 67.6416C112.911 67.35 113.329 67.9336 114.084 67.7998C114.363 68.6807 114.654 69.2339 114.446 70.1542C113.946 70.672 113.469 70.8644 112.796 71.0978Z"/>
	<path fill="#CCCBCC" transform="scale(3.25444 3.25418)" d="M91.7733 67.5773C91.3992 67.5347 90.9679 67.601 90.5893 67.6206C90.1159 67.2897 89.9962 67.2482 89.8206 66.6717C89.8855 66.3926 89.9863 66.1514 90.1769 65.9342C91.1396 64.837 92.3656 64.2453 93.7996 64.1077C93.3734 65.5252 92.826 66.5235 91.7733 67.5773Z"/>
	<path fill="#B0AEAE" transform="scale(3.25444 3.25418)" d="M131.183 82.4367C130.865 79.9044 131.5 76.6778 131.699 74.1222L132.19 74.0042L131.761 73.8015L131.697 74.1708L131.942 73.4979C132.827 74.8448 132.555 77.3991 132.531 78.9746C132.413 80.6358 132.172 82.3815 132.252 84.0413C132.058 83.4346 131.859 82.846 131.597 82.265L131.183 82.4367Z"/>
	<path fill="#B0AEAE" transform="scale(3.25444 3.25418)" d="M144.283 82.8103C145.004 83.6129 146.273 85.2979 147.399 85.4283L148.094 86.7468L146.91 87.1482C145.328 87.0839 144.192 85.9998 142.505 85.9559L144.283 82.8103Z"/>
	<path fill="#B0AEAE" transform="scale(3.25444 3.25418)" d="M101.576 21.3147C104.215 21.0024 107.034 21.5901 109.496 22.5375L108.486 23.0974L105.349 22.6562L104.527 22.6349C102.418 22.8549 102.721 23.4107 101.269 23.7637C100.83 23.2694 100.829 22.9591 100.698 22.3206C100.971 21.9586 101.26 21.6389 101.576 21.3147Z"/>
	<path fill="#B0AEAE" transform="scale(3.25444 3.25418)" d="M93.7996 64.1077C94.1462 64.1063 94.5814 64.0057 94.8317 64.259C95.6231 65.0597 95.8807 66.736 95.8548 67.826C95.8402 68.4371 95.7886 69.2819 95.3435 69.7432C95.2451 69.8452 94.7812 69.8629 94.6233 69.884L93.9969 69.4665C93.9942 68.7708 94.1372 68.3896 93.6218 67.8737C93.0253 67.8052 92.3332 67.7892 91.7733 67.5773C92.826 66.5235 93.3734 65.5252 93.7996 64.1077Z"/>
	<path fill="#CCCBCC" transform="scale(3.25444 3.25418)" d="M95.0025 57.7691C96.5664 58.6034 98.5171 59.4476 100.319 58.9356C100.986 58.7458 101.448 58.2349 101.887 57.7262C102.08 58.2451 102.317 59.2138 102.82 59.4952C101.563 60.8459 100.332 61.3615 98.6115 61.9661C97.7038 61.6291 96.3943 61.2966 95.6768 60.6531C95.7637 59.8624 95.4886 59.8504 95.1117 59.2002C94.7826 58.6324 94.8533 58.3774 95.0025 57.7691Z"/>
	<path fill="#CCCBCC" transform="scale(3.25444 3.25418)" d="M98.9559 64.3581C100.993 65.3054 102.3 64.8091 104.363 64.5915L104.402 64.8657L103.351 65.8335C103.067 66.5753 103.44 67.4733 103.637 68.2104C103.487 68.6829 103.312 69.1731 102.998 69.5645C102.527 70.1512 102.139 70.3665 101.428 70.4444C101.101 70.3493 100.839 70.183 100.591 69.9533C99.0335 68.5102 99.0204 66.3089 98.9559 64.3581Z"/>
	<path fill="#D9D8D9" transform="scale(3.25444 3.25418)" d="M135.721 96.959C135.757 103.649 136.009 110.439 135.752 117.119C135.427 115.712 134.878 114.871 134.046 113.711C133.925 110.948 134.164 108.153 134.312 105.393C134.942 102.648 135.224 99.7412 135.721 96.959Z"/>
	<path fill="#D9D8D9" transform="scale(3.25444 3.25418)" d="M80.5626 105.023L80.9947 105.199C82.1923 104.434 82.9688 100.863 83.2718 99.4924C84.087 95.8032 84.1414 81.1497 84.6637 80.044L85.0136 79.9643C85.9319 81.4916 84.877 85.974 84.8406 87.874C84.7694 91.5871 85.5545 95.3562 84.6284 99.0255C84.0039 101.5 82.6224 104.961 81.2636 107.116C81.2472 107.651 81.2515 108.057 81.439 108.564L81.1816 108.747C80.781 107.682 80.7367 106.167 80.5626 105.023Z"/>
	<path fill="#CCCBCC" transform="scale(3.25444 3.25418)" d="M109.496 22.5375C115.366 24.4927 120.924 26.5896 124.735 31.7958C124.4 31.6065 124 31.5209 123.631 31.4118C122.827 30.764 122.239 29.9413 121.457 29.2839C119.447 27.5949 117.092 26.3543 114.753 25.1921C114.068 24.8517 113.053 24.2223 112.277 24.4835C111.778 25.7941 115.278 30.2417 115.366 32.642C115.443 34.7241 114.025 42.0347 112.585 43.5774L112.371 43.3484C112.301 42.0723 113.941 37.0402 114.256 35.2276C114.78 32.2177 114.046 29.6668 112.301 27.1681C111.405 26.7117 111.152 27.2736 110.292 27.2152C109.212 27.1419 109.409 24.0405 108.588 23.1984C108.555 23.1642 108.52 23.1311 108.486 23.0974L109.496 22.5375Z"/>
	<path fill="#CCCBCC" transform="scale(3.25444 3.25418)" d="M84.1267 39.3461C85.2729 37.1499 86.6688 34.562 88.4188 32.808C89.5414 31.6828 90.9067 30.7148 91.9384 29.5132C92.6986 28.6278 93.0973 26.8803 94.2784 26.4758C94.5034 26.3988 94.6017 26.4772 94.8132 26.5573C94.6665 27.5084 92.1591 31.2456 91.5372 32.446C91.1106 32.6611 90.4295 32.8804 90.0728 33.162C89.7548 33.413 87.6275 38.7166 87.3752 39.4563C87.2513 39.8192 87.3033 40.1718 87.478 40.5081C87.5227 40.594 87.557 40.6435 87.6077 40.7213C87.4636 41.7519 86.4721 43.3687 85.7839 44.1277C85.3711 44.5829 85.2358 44.7148 84.6217 44.7439C83.995 43.3734 85.1479 41.3327 84.1716 39.4321L84.1267 39.3461Z"/>
	<path fill="#CCCBCC" transform="scale(3.25444 3.25418)" d="M132.531 78.9746C132.671 80.0485 132.692 81.2761 133.593 82.0135C134.361 82.0271 135.214 81.2054 135.695 81.5951C136.507 86.5791 135.825 91.9238 135.721 96.959C135.224 99.7412 134.942 102.648 134.312 105.393C134.31 98.2566 133.841 91.009 132.252 84.0413C132.172 82.3815 132.413 80.6358 132.531 78.9746Z"/>
	<defs>
		<linearGradient id="gradient_6" gradientUnits="userSpaceOnUse" x1="137.14626" y1="118.61426" x2="142.74338" y2="118.44275">
			<stop offset="0" stop-color="#BAB8B9"/>
			<stop offset="1" stop-color="#DDD"/>
		</linearGradient>
	</defs>
	<path fill="url(#gradient_6)" transform="scale(3.25444 3.25418)" d="M136.775 121.771L136.845 121.641C137.982 119.464 140.553 106.61 140.636 106.525C140.636 107.123 140.528 108.259 140.983 108.696C141.672 109.357 142.515 109.936 143.276 110.514C141.808 113.175 140.953 115.804 140.561 118.822C141.05 119.349 141.591 119.865 141.939 120.499C141.787 121.163 141.068 121.614 140.971 122.111C140.825 122.859 141.931 127.437 142.287 128.431C141.958 128.703 141.635 128.996 141.275 129.227C140.035 127.162 139.312 125.064 138.572 122.787C138.417 123.032 138.351 123.023 138.086 123.119C137.452 122.787 137.162 122.361 136.775 121.771Z"/>
	<path fill="#B0AEAE" transform="scale(3.25444 3.25418)" d="M104.527 22.6349L105.349 22.6562C105.581 24.7325 106.856 26.5394 107.226 28.6155C108.629 36.4927 106.053 39.5896 104.264 46.6392C103.235 40.773 104.207 29.0271 104.527 22.6349Z"/>
	<path fill="#979595" transform="scale(3.25444 3.25418)" d="M114.084 67.7998C113.457 61.5443 114.72 56.4453 118.052 51.1453C118.58 50.3066 119.22 48.9475 120.202 48.7238L120.374 49.2378C118.122 51.1919 116.686 54.9645 116.478 57.8668C116.189 61.9035 116.445 66.111 116.503 70.1638C116.774 71.1942 117.638 76.4881 117.881 76.733L116.962 77.1218C116.919 77.8267 116.733 77.9463 116.303 78.4868C115.577 78.339 115.424 78.3565 114.949 77.7888C114 75.6991 113.454 73.2999 112.796 71.0978C113.469 70.8644 113.946 70.672 114.446 70.1542C114.654 69.2339 114.363 68.6807 114.084 67.7998Z"/>
	<path fill="#797878" transform="scale(3.25444 3.25418)" d="M116.503 70.1638C116.774 71.1942 117.638 76.4881 117.881 76.733L116.962 77.1218L116.513 76.8572C116.308 76.5434 116.215 76.2556 116.149 75.8903C115.867 74.3502 115.577 71.4942 116.503 70.1638Z"/>
	<path fill="#D9D8D9" transform="scale(3.25444 3.25418)" d="M114.949 77.7888C115.424 78.3565 115.577 78.339 116.303 78.4868C116.289 79.4125 116.175 81.1109 116.71 81.9133C114.661 83.6919 113.083 86.1914 112.874 88.9481C112.643 91.9865 116.149 96.4362 114.217 98.5636Q114.145 98.4815 114.076 98.3967C110.05 93.4917 109.769 87.019 110.318 80.9376C111.409 79.8804 114.405 78.9872 114.949 77.7888Z"/>
	<path fill="#B0AEAE" transform="scale(3.25444 3.25418)" d="M90.928 36.9783L91.372 37.7103C88.0128 41.9522 86.1633 46.5419 83.9494 51.4186C82.9295 53.6651 81.6572 56.0057 81.0976 58.4242C80.1081 59.8841 78.2137 60.407 78.1228 60.5419C78.0227 60.6906 78.2089 61.6223 78.2488 61.8301C78.5214 63.2528 78.8942 64.6878 79.0783 66.123C79.0537 66.1252 79.0291 66.1294 79.0043 66.1296C78.2474 66.1359 77.8235 65.8191 77.3168 65.3359C76.8999 64.4054 77.0046 63.4065 77.03 62.4113C77.4163 61.4405 77.1315 60.3934 76.901 59.4243C78.0369 55.1321 79.4924 47.4727 81.2419 43.7495C82.0047 42.126 83.0351 40.7546 84.1267 39.3461L84.1716 39.4321C85.1479 41.3327 83.995 43.3734 84.6217 44.7439C85.2358 44.7148 85.3711 44.5829 85.7839 44.1277C86.4721 43.3687 87.4636 41.7519 87.6077 40.7213C88.5624 39.2542 89.4509 37.9611 90.928 36.9783Z"/>
	<path fill="#979595" transform="scale(3.25444 3.25418)" d="M95.6768 60.6531C93.9151 59.5215 92.5691 58.1896 92.0677 56.0832Q91.9973 55.7827 91.9572 55.4768Q91.9171 55.1708 91.9076 54.8623Q91.8981 54.5539 91.9195 54.246Q91.9408 53.9382 91.9926 53.6339Q92.0445 53.3297 92.1264 53.0322Q92.2083 52.7347 92.3194 52.4468Q92.4305 52.1589 92.5697 51.8835Q92.7089 51.6081 92.8749 51.3479Q93.0577 51.057 93.2682 50.7856Q93.4787 50.5142 93.715 50.2648Q93.9513 50.0154 94.211 49.7906Q94.4706 49.5657 94.7512 49.3675Q95.0318 49.1693 95.3305 48.9998Q95.6293 48.8302 95.9433 48.6909Q96.2573 48.5516 96.5835 48.4439Q96.9097 48.3362 97.2449 48.2612C99.6394 47.7336 101.971 48.5304 103.977 49.813C104.791 51.3734 105.412 53.0639 105.282 54.8452C105.149 56.648 104.164 58.3227 102.82 59.4952C102.317 59.2138 102.08 58.2451 101.887 57.7262C101.448 58.2349 100.986 58.7458 100.319 58.9356C98.5171 59.4476 96.5664 58.6034 95.0025 57.7691C94.8533 58.3774 94.7826 58.6324 95.1117 59.2002C95.4886 59.8504 95.7637 59.8624 95.6768 60.6531Z"/>
	<path fill="#5F5D5F" transform="scale(3.25444 3.25418)" d="M101.473 51.4203C102.283 52.386 103.169 53.2823 104.045 54.1877C102.894 54.1304 101.047 54.2668 100.101 53.555L100.022 53.4182C99.8185 53.0725 99.6588 52.8044 99.308 52.5865C100.041 52.299 100.974 52.0575 101.473 51.4203Z"/>
	<path fill="#363536" transform="scale(3.25444 3.25418)" d="M99.308 52.5865C98.4227 52.8818 97.4985 53.2128 96.5777 53.3729C95.884 53.4935 95.4285 53.4085 94.8697 53.0202C94.8982 52.7679 94.8746 52.5477 95.0358 52.3464C95.8606 51.3165 97.3026 50.6162 98.6156 50.4888C99.8078 50.3732 100.566 50.6794 101.473 51.4203C100.974 52.0575 100.041 52.299 99.308 52.5865Z"/>
	<path fill="#5F5D5F" transform="scale(3.25444 3.25418)" d="M95.0025 57.7691C94.7171 57.0965 94.6554 56.6402 94.7321 55.9142C94.9872 55.5621 95.0339 55.4636 95.4723 55.3846C97.1926 55.0745 98.4813 56.846 99.7376 56.9342C100.42 56.9822 101.065 54.4196 102.664 55.4058C102.638 56.2271 102.217 56.9879 101.887 57.7262C101.448 58.2349 100.986 58.7458 100.319 58.9356C98.5171 59.4476 96.5664 58.6034 95.0025 57.7691Z"/>
	<path fill="#363536" transform="scale(3.25444 3.25418)" d="M149.035 90.3626C150.244 91.7735 156.158 109.991 157.506 113.257C156.145 114.84 154.497 115.587 152.626 116.42C149.581 108.154 146.873 99.7759 143.944 91.4687C145.677 91.2109 147.345 90.8122 149.035 90.3626Z"/>
	<path fill="#363536" transform="scale(3.25444 3.25418)" d="M123.631 31.4118C124 31.5209 124.4 31.6065 124.735 31.7958C134.552 46.2681 138.117 63.7984 145.592 79.4175C144.043 79.4826 142.501 79.6849 140.961 79.8595C138.483 71.802 134.809 64.3454 132.051 56.4186C129.982 50.4721 129.813 43.9198 127.471 38.1372C126.487 35.7086 125.075 33.5816 123.631 31.4118Z"/>
	<defs>
		<linearGradient id="gradient_7" gradientUnits="userSpaceOnUse" x1="127.90509" y1="105.85016" x2="143.42444" y2="108.18938">
			<stop offset="0" stop-color="#939292"/>
			<stop offset="1" stop-color="#B1B0B0"/>
		</linearGradient>
	</defs>
	<path fill="url(#gradient_7)" transform="scale(3.25444 3.25418)" d="M131.183 82.4367L131.597 82.265C131.859 82.846 132.058 83.4346 132.252 84.0413C133.841 91.009 134.31 98.2566 134.312 105.393C134.164 108.153 133.925 110.948 134.046 113.711C134.878 114.871 135.427 115.712 135.752 117.119C136.016 118.704 136.332 120.222 136.775 121.771C137.162 122.361 137.452 122.787 138.086 123.119C138.351 123.023 138.417 123.032 138.572 122.787C139.312 125.064 140.035 127.162 141.275 129.227C140.173 129.656 138.885 130.064 137.942 130.785C137.249 131.316 136.935 131.952 136.114 132.345C133.619 126.096 131.593 119.715 129.241 113.421C129.293 113.37 129.344 113.319 129.391 113.264C129.609 113.012 129.815 112.711 129.832 112.367C129.912 110.731 129.458 108.92 129.43 107.246C129.393 105.08 129.765 102.934 129.659 100.77C130.637 94.829 131.212 88.4651 131.183 82.4367Z"/>
	<defs>
		<linearGradient id="gradient_8" gradientUnits="userSpaceOnUse" x1="114.19544" y1="88.006783" x2="140.75044" y2="71.684959">
			<stop offset="0" stop-color="#B1AFB0"/>
			<stop offset="1" stop-color="#DDDDDC"/>
		</linearGradient>
	</defs>
	<path fill="url(#gradient_8)" transform="scale(3.25444 3.25418)" d="M123.806 57.4264C124.25 55.3977 125.405 48.2358 126.627 47.0853C127.665 48.5943 126.578 62.9426 126.612 65.9987C126.65 69.4958 127.232 72.983 127.407 76.4775C127.62 80.7201 127.088 98.3151 129.19 100.888C129.326 100.861 129.548 100.847 129.659 100.77C129.765 102.934 129.393 105.08 129.43 107.246C129.458 108.92 129.912 110.731 129.832 112.367C129.815 112.711 129.609 113.012 129.391 113.264C129.344 113.319 129.293 113.37 129.241 113.421C126.256 106.786 122.976 99.3335 120.972 92.3633C119.956 88.834 119.248 79.169 117.881 76.733C117.638 76.4881 116.774 71.1942 116.503 70.1638C116.445 66.111 116.189 61.9035 116.478 57.8668C116.686 54.9645 118.122 51.1919 120.374 49.2378C120.336 52.5534 118.174 65.7687 120.064 67.7292C120.192 67.8619 120.321 67.9856 120.471 68.094C121.745 64.5887 122.789 61.0126 123.806 57.4264Z"/>
	<path fill="#797878" transform="scale(3.25444 3.25418)" d="M123.806 57.4264C124.64 58.7638 124.077 60.4506 123.737 61.9301C123.287 63.8895 122.088 68.9614 120.492 70.0686C120.174 69.5317 120.395 68.6936 120.471 68.094C121.745 64.5887 122.789 61.0126 123.806 57.4264Z"/>
	<path fill="#979595" transform="scale(3.25444 3.25418)" d="M124.444 71.6505C125.493 74.1544 124.96 82.4264 124.525 85.3482C124.229 87.3348 123.749 88.7346 122.083 89.9779C121.969 87.9688 121.419 86.006 121.448 83.9837C121.498 80.6275 123.654 75.1946 124.444 71.6505Z"/>
	<path fill="#797878" transform="scale(3.25444 3.25418)" d="M76.8898 17.1226Q77.0774 17.0066 77.271 16.9008C82.3904 14.1155 93.9601 12.6165 99.6042 14.2619C96.9063 16.3316 94.7724 18.8493 92.2339 21.0648Q89.3746 24.9501 86.8235 29.0443Q84.2724 33.1385 82.0447 37.4173Q79.817 41.6962 77.926 46.1341Q76.035 50.572 74.492 55.1425C73.666 57.1246 73.1298 59.1912 72.6721 61.286L72.0914 60.5551L71.6172 62.0442C71.5982 62.0282 71.5778 62.0135 71.56 61.9961C71.5307 61.9675 71.5043 61.9361 71.4762 61.9064C70.3567 60.7208 70.2467 49.4678 70.2237 47.2989C70.1978 44.855 70.3368 37.4045 71.9745 35.7308C71.1026 33.4532 71.0071 33.2822 69.0046 32.0635C69.1693 30.1296 70.392 27.7548 70.9341 25.8179C71.0357 25.1033 71.0907 24.9276 70.7706 24.2822C72.7549 23.5927 72.9593 20.2921 74.4898 18.722C75.1534 18.0413 76.0678 17.5842 76.8898 17.1226Z"/>
	<path fill="#D9D8D9" transform="scale(3.25444 3.25418)" d="M72.312 41.9437C73.2855 38.5165 74.0894 35.3665 74.0638 31.7687C74.0551 30.5501 73.7495 29.2616 73.8022 28.0795C73.8286 27.4868 73.9963 27.3429 74.408 26.9629C75.5373 31.3467 77.8878 38.898 77.5011 43.2802C77.2385 46.2551 75.5736 49.116 74.6314 51.9281C73.6772 54.7757 72.9291 57.6739 72.0914 60.5551L71.6172 62.0442C71.5982 62.0282 71.5778 62.0135 71.56 61.9961C71.5307 61.9675 71.5043 61.9361 71.4762 61.9064C70.3567 60.7208 70.2467 49.4678 70.2237 47.2989C70.1978 44.855 70.3368 37.4045 71.9745 35.7308C72.6442 37.4609 72.3103 40.0943 72.312 41.9437Z"/>
	<defs>
		<linearGradient id="gradient_9" gradientUnits="userSpaceOnUse" x1="87.599968" y1="21.957541" x2="88.137619" y2="13.614442">
			<stop offset="0" stop-color="#B7B6B6"/>
			<stop offset="1" stop-color="#EAE9E9"/>
		</linearGradient>
	</defs>
	<path fill="url(#gradient_9)" transform="scale(3.25444 3.25418)" d="M76.8898 17.1226Q77.0774 17.0066 77.271 16.9008C82.3904 14.1155 93.9601 12.6165 99.6042 14.2619C96.9063 16.3316 94.7724 18.8493 92.2339 21.0648C90.7029 20.1348 82.5781 21.7193 80.6527 22.097Q77.2071 22.7547 73.7725 23.4676C73.9689 24.3667 74.5863 26.1096 74.408 26.9629C73.9963 27.3429 73.8286 27.4868 73.8022 28.0795C73.7495 29.2616 74.0551 30.5501 74.0638 31.7687C74.0894 35.3665 73.2855 38.5165 72.312 41.9437C72.3103 40.0943 72.6442 37.4609 71.9745 35.7308C71.1026 33.4532 71.0071 33.2822 69.0046 32.0635C69.1693 30.1296 70.392 27.7548 70.9341 25.8179C71.0357 25.1033 71.0907 24.9276 70.7706 24.2822C72.7549 23.5927 72.9593 20.2921 74.4898 18.722C75.1534 18.0413 76.0678 17.5842 76.8898 17.1226Z"/>
	<defs>
		<linearGradient id="gradient_10" gradientUnits="userSpaceOnUse" x1="69.707581" y1="27.560598" x2="79.691628" y2="28.651087">
			<stop offset="0" stop-color="#969595"/>
			<stop offset="1" stop-color="#B6B5B5"/>
		</linearGradient>
	</defs>
	<path fill="url(#gradient_10)" transform="scale(3.25444 3.25418)" d="M70.7706 24.2822C72.7549 23.5927 72.9593 20.2921 74.4898 18.722C75.1534 18.0413 76.0678 17.5842 76.8898 17.1226L76.9522 17.1763C79.2912 19.1555 83.2807 18.4926 86.108 18.2398C87.4645 18.1185 88.9312 17.8471 90.2816 18.0017L90.2755 18.3068C89.1424 19.1081 81.1205 18.0271 80.3383 19.3185C80.4833 20.196 80.7163 21.2125 80.6527 22.097Q77.2071 22.7547 73.7725 23.4676C73.9689 24.3667 74.5863 26.1096 74.408 26.9629C73.9963 27.3429 73.8286 27.4868 73.8022 28.0795C73.7495 29.2616 74.0551 30.5501 74.0638 31.7687C74.0894 35.3665 73.2855 38.5165 72.312 41.9437C72.3103 40.0943 72.6442 37.4609 71.9745 35.7308C71.1026 33.4532 71.0071 33.2822 69.0046 32.0635C69.1693 30.1296 70.392 27.7548 70.9341 25.8179C71.0357 25.1033 71.0907 24.9276 70.7706 24.2822Z"/>
	<defs>
		<linearGradient id="gradient_11" gradientUnits="userSpaceOnUse" x1="91.293915" y1="79.564751" x2="70.298355" y2="70.540794">
			<stop offset="0" stop-color="#ADACAC"/>
			<stop offset="1" stop-color="#DAD9D9"/>
		</linearGradient>
	</defs>
	<path fill="url(#gradient_11)" transform="scale(3.25444 3.25418)" d="M82.3813 66.3272C83.5503 62.5732 84.8806 58.8234 85.7887 54.9976C86.5701 51.7052 86.9517 48.0144 88.0486 44.838C88.2754 44.1813 88.5895 43.8118 89.1421 43.4018C89.8366 43.2236 90.3403 43.2024 91.0468 43.3253L91.2017 43.6932C90.6877 44.8798 89.7432 46.1607 89.4251 47.3715C88.0109 52.7555 89.7721 59.9469 88.5814 65.4118C88.2364 66.9955 85.3052 69.8316 84.3193 71.4981C80.592 77.7984 80.2463 85.4618 79.9881 92.5946C79.9102 94.7461 79.7099 97.1189 79.956 99.2598C80.1614 101.171 80.4409 103.106 80.5626 105.023C80.7367 106.167 80.781 107.682 81.1816 108.747C80.7462 108.831 79.8103 108.905 79.5123 109.209C78.0287 109.587 77.0162 109.539 75.568 109.142C75.0043 109.35 74.4286 109.611 73.8187 109.599L72.5088 109.48L72.8729 109.216C73.0146 108.485 72.4826 108.183 72.1971 107.546C71.9078 106.9 72.0548 106.626 72.2936 106.01C72.2215 105.778 71.9752 105.61 71.8002 105.45C69.3109 95.6841 70.3527 79.3153 71.5492 69.3125C70.99 69.2382 70.6566 69.1754 70.214 68.8096C69.7145 68.123 69.8713 67.1155 69.8886 66.3034C70.1471 66.3267 70.2008 66.2656 70.4219 66.1412L70.5013 65.2044C70.7252 64.0202 71.5764 63.3611 71.6172 62.0442L72.0914 60.5551L72.6721 61.286C73.1298 59.1912 73.666 57.1246 74.492 55.1425C74.9924 56.0031 76.1601 59.1381 76.8534 59.4173C76.8683 59.4233 76.8851 59.422 76.901 59.4243C77.1315 60.3934 77.4163 61.4405 77.03 62.4113C77.0046 63.4065 76.8999 64.4054 77.3168 65.3359C77.8235 65.8191 78.2474 66.1359 79.0043 66.1296C79.0291 66.1294 79.0537 66.1252 79.0783 66.123C78.8942 64.6878 78.5214 63.2528 78.2488 61.8301C78.2089 61.6223 78.0227 60.6906 78.1228 60.5419C78.2137 60.407 80.1081 59.8841 81.0976 58.4242C80.9776 60.531 79.5059 63.4283 81.0643 65.1918C81.4506 65.6291 81.9107 65.9859 82.3813 66.3272Z"/>
	<path fill="#797878" transform="scale(3.25444 3.25418)" d="M72.5088 109.48L72.8729 109.216C73.0146 108.485 72.4826 108.183 72.1971 107.546C71.9078 106.9 72.0548 106.626 72.2936 106.01C74.0061 106.871 74.5528 108.608 75.568 109.142C75.0043 109.35 74.4286 109.611 73.8187 109.599L72.5088 109.48Z"/>
	<path fill="#5F5D5F" transform="scale(3.25444 3.25418)" d="M79.5123 109.209C79.4252 107.296 78.7619 100.285 79.552 98.9066L79.956 99.2598C80.1614 101.171 80.4409 103.106 80.5626 105.023C80.7367 106.167 80.781 107.682 81.1816 108.747C80.7462 108.831 79.8103 108.905 79.5123 109.209Z"/>
	<path fill="#D9D8D9" transform="scale(3.25444 3.25418)" d="M79.0783 66.123C78.8942 64.6878 78.5214 63.2528 78.2488 61.8301C78.2089 61.6223 78.0227 60.6906 78.1228 60.5419C78.2137 60.407 80.1081 59.8841 81.0976 58.4242C80.9776 60.531 79.5059 63.4283 81.0643 65.1918C81.4506 65.6291 81.9107 65.9859 82.3813 66.3272C81.5048 69.2685 80.7657 72.0367 80.3305 75.0815C79.9323 72.6742 80.3908 68.0982 79.0783 66.123Z"/>
	<path fill="#CCCBCC" transform="scale(3.25444 3.25418)" d="M72.6721 61.286C73.1298 59.1912 73.666 57.1246 74.492 55.1425C74.9924 56.0031 76.1601 59.1381 76.8534 59.4173C76.8683 59.4233 76.8851 59.422 76.901 59.4243C77.1315 60.3934 77.4163 61.4405 77.03 62.4113C74.6612 62.7062 74.5046 65.0875 72.1214 65.3268C71.9106 66.653 71.694 67.9771 71.5492 69.3125C70.99 69.2382 70.6566 69.1754 70.214 68.8096C69.7145 68.123 69.8713 67.1155 69.8886 66.3034C70.1471 66.3267 70.2008 66.2656 70.4219 66.1412L70.5013 65.2044C70.7252 64.0202 71.5764 63.3611 71.6172 62.0442L72.0914 60.5551L72.6721 61.286Z"/>
	<path fill="#979595" transform="scale(3.25444 3.25418)" d="M71.6172 62.0442L72.0914 60.5551L72.6721 61.286C72.4718 62.623 72.2139 63.9784 72.1214 65.3268C71.9106 66.653 71.694 67.9771 71.5492 69.3125C70.99 69.2382 70.6566 69.1754 70.214 68.8096C69.7145 68.123 69.8713 67.1155 69.8886 66.3034C70.1471 66.3267 70.2008 66.2656 70.4219 66.1412L70.5013 65.2044C70.7252 64.0202 71.5764 63.3611 71.6172 62.0442Z"/>
	<defs>
		<linearGradient id="gradient_12" gradientUnits="userSpaceOnUse" x1="43.869434" y1="81.098854" x2="76.558578" y2="66.517799">
			<stop offset="0" stop-color="#918F90"/>
			<stop offset="1" stop-color="#AEADAD"/>
		</linearGradient>
	</defs>
	<path fill="url(#gradient_12)" transform="scale(3.25444 3.25418)" d="M70.7706 24.2822C71.0907 24.9276 71.0357 25.1033 70.9341 25.8179C70.392 27.7548 69.1693 30.1296 69.0046 32.0635C71.0071 33.2822 71.1026 33.4532 71.9745 35.7308C70.3368 37.4045 70.1978 44.855 70.2237 47.2989C70.2467 49.4678 70.3567 60.7208 71.4762 61.9064C71.5043 61.9361 71.5307 61.9675 71.56 61.9961C71.5778 62.0135 71.5982 62.0282 71.6172 62.0442C71.5764 63.3611 70.7252 64.0202 70.5013 65.2044L70.4219 66.1412C70.2008 66.2656 70.1471 66.3267 69.8886 66.3034C69.8713 67.1155 69.7145 68.123 70.214 68.8096C70.6566 69.1754 70.99 69.2382 71.5492 69.3125C70.3527 79.3153 69.3109 95.6841 71.8002 105.45C71.9752 105.61 72.2215 105.778 72.2936 106.01C72.0548 106.626 71.9078 106.9 72.1971 107.546C72.4826 108.183 73.0146 108.485 72.8729 109.216L72.5088 109.48C71.1945 108.922 70.5467 108.028 69.0428 107.981C66.8936 107.996 64.6994 107.93 62.5607 108.138C60.9682 108.56 60.0533 108.566 58.5354 107.889C57.3177 107.101 56.0551 106.319 54.5772 106.205C54.6681 104.952 53.0533 102.821 52.7621 101.367C52.099 98.0562 53.0141 94.4412 51.8891 91.1861C50.7644 90.0521 50.59 81.8942 50.4038 79.9145C50.9186 75.8323 50.8479 71.6965 51.4632 67.5807C49.3872 63.0446 47.1487 58.3857 45.3579 53.7455C45.7367 53.9834 45.8604 54.089 46.3217 54.0901C47.8203 51.8273 46.2083 46.7529 47.4089 43.8983C47.759 41.558 48.461 39.2693 49.116 37.0012C50.9572 33.6701 54.3648 32.008 56.9706 29.3663C56.9894 29.3308 57.0067 29.2945 57.027 29.2598C57.6378 28.2178 62.2739 26.7015 63.4312 26.4127L64.2474 26.1012C66.2218 25.2312 68.6765 24.8236 70.7706 24.2822Z"/>
	<path fill="#B0AEAE" transform="scale(3.25444 3.25418)" d="M68.5544 69.4312C68.7198 70.5747 68.7228 71.8591 69.0124 72.9643C69.066 74.2124 68.6072 76.1296 68.1532 77.2958C67.944 77.8332 67.7753 78.0537 67.2558 78.278C65.936 76.573 68.2939 74.5582 68.1129 72.8357L67.6449 72.5467L68.3081 72.115C68.775 71.3452 68.5946 70.2987 68.5544 69.4312Z"/>
	<path fill="#CCCBCC" transform="scale(3.25444 3.25418)" d="M67.6449 72.5467L66.673 72.0787C66.2998 71.5684 66.1065 71.0991 66.0745 70.4594C66.0066 69.1042 66.7136 67.9064 67.6062 66.9577C68.1182 67.8048 68.4211 68.4331 68.5544 69.4312C68.5946 70.2987 68.775 71.3452 68.3081 72.115L67.6449 72.5467Z"/>
	<path fill="#B0AEAE" transform="scale(3.25444 3.25418)" d="M56.4104 55.0316C55.6343 53.2742 54.8979 50.8076 54.7873 48.8899C54.744 48.1398 54.765 47.341 55.3088 46.7662C55.4608 46.6056 55.7377 46.6602 55.9548 46.6525C57.9487 47.7472 58.2528 50.5472 58.8978 52.4712L56.4104 55.0316Z"/>
	<path fill="#797878" transform="scale(3.25444 3.25418)" d="M66.6218 105.928C66.299 104.208 65.4838 99.9651 66.4253 98.474C67.782 100.782 65.6742 105.754 67.3938 107.608L69.0428 107.981C66.8936 107.996 64.6994 107.93 62.5607 108.138C60.9682 108.56 60.0533 108.566 58.5354 107.889C59.214 106.846 59.8634 106.55 61.0482 106.292C62.807 105.91 64.8205 106.004 66.6218 105.928Z"/>
	<path fill="#5F5D5F" transform="scale(3.25444 3.25418)" d="M58.8978 52.4712C60.5653 54.0537 61.8353 56.0521 63.4395 57.7147C60.4853 57.925 57.4841 57.9709 54.6021 58.6958C55.2087 57.4848 55.8775 56.2755 56.4104 55.0316L58.8978 52.4712Z"/>
	<path fill="#CCCBCC" transform="scale(3.25444 3.25418)" d="M61.4035 31.4455C61.8926 32.0301 62.2213 32.429 62.3003 33.2027C59.5507 36.3819 57.9334 42.5627 54.2894 44.6206L53.678 44.6012L53.118 43.9949C54.8558 40.4765 56.6858 37.26 58.9369 34.0431C59.7676 33.1857 60.5828 32.3125 61.4035 31.4455Z"/>
	<path fill="#D9D8D9" transform="scale(3.25444 3.25418)" d="M70.7706 24.2822C71.0907 24.9276 71.0357 25.1033 70.9341 25.8179C70.392 27.7548 69.1693 30.1296 69.0046 32.0635L69.0223 32.2984L68.4968 32.8367L68.1704 32.7521C67.9533 31.9908 68.0893 30.6754 67.6438 30.114C65.9014 30.9026 64.3247 33.2785 62.8308 34.5353L62.4259 33.6131L62.3003 33.2027C62.2213 32.429 61.8926 32.0301 61.4035 31.4455C60.5828 32.3125 59.7676 33.1857 58.9369 34.0431C56.6858 37.26 54.8558 40.4765 53.118 43.9949C53.0991 44.0095 53.0799 44.0239 53.0611 44.0387C51.4184 45.3325 50.0364 49.9754 49.8933 50.0778C49.809 50.1381 49.6889 50.1117 49.5867 50.1287C49.1795 48.7489 49.9713 47.1539 50.1734 45.7836C49.7362 45.1711 49.6459 44.5161 49.5172 43.7946C49.6257 42.9473 49.7873 41.8216 49.3193 41.071C49.2871 42.0197 49.221 42.9523 49.1167 43.8958C48.6883 42.2815 48.7957 40.3392 49.2965 38.7515L49.0826 38.6792C48.5536 39.6517 48.0668 43.5814 47.4089 43.8983C47.759 41.558 48.461 39.2693 49.116 37.0012C50.9572 33.6701 54.3648 32.008 56.9706 29.3663C56.9894 29.3308 57.0067 29.2945 57.027 29.2598C57.6378 28.2178 62.2739 26.7015 63.4312 26.4127L64.2474 26.1012C66.2218 25.2312 68.6765 24.8236 70.7706 24.2822Z"/>
	<path fill="#B0AEAE" transform="scale(3.25444 3.25418)" d="M49.3193 41.071C49.3313 39.6513 49.7219 37.8639 50.3751 36.5936C51.0439 35.2927 51.9709 34.4344 53.3707 33.9898C53.2291 37.3395 50.0835 40.4208 49.5172 43.7946C49.6257 42.9473 49.7873 41.8216 49.3193 41.071Z"/>
	<path fill="#8A8889" transform="scale(3.25444 3.25418)" d="M56.9706 29.3663C56.9894 29.3308 57.0067 29.2945 57.027 29.2598C57.6378 28.2178 62.2739 26.7015 63.4312 26.4127L63.1811 26.8884C62.7071 27.0335 62.2715 27.1738 61.8336 27.4112L61.6737 27.8349C61.8941 28.1577 62.1142 28.4744 62.3606 28.7784L61.9969 29.0555C61.0254 28.7526 60.5092 28.9632 59.6159 29.4287C57.4203 30.5727 55.2041 32.3142 53.3707 33.9898C51.9709 34.4344 51.0439 35.2927 50.3751 36.5936C49.7219 37.8639 49.3313 39.6513 49.3193 41.071C49.2871 42.0197 49.221 42.9523 49.1167 43.8958C48.6883 42.2815 48.7957 40.3392 49.2965 38.7515L49.0826 38.6792C48.5536 39.6517 48.0668 43.5814 47.4089 43.8983C47.759 41.558 48.461 39.2693 49.116 37.0012C50.9572 33.6701 54.3648 32.008 56.9706 29.3663Z"/>
	<path fill="#8A8889" transform="scale(3.25444 3.25418)" d="M57.3166 34.4584C58.0995 34.668 58.2349 34.4465 58.9369 34.0431C56.6858 37.26 54.8558 40.4765 53.118 43.9949C53.0991 44.0095 53.0799 44.0239 53.0611 44.0387C51.4184 45.3325 50.0364 49.9754 49.8933 50.0778C49.809 50.1381 49.6889 50.1117 49.5867 50.1287C49.1795 48.7489 49.9713 47.1539 50.1734 45.7836C52.3173 41.7403 53.5837 37.4699 57.3166 34.4584Z"/>
	<path fill="#797878" transform="scale(3.25444 3.25418)" d="M70.7706 24.2822C71.0907 24.9276 71.0357 25.1033 70.9341 25.8179C70.392 27.7548 69.1693 30.1296 69.0046 32.0635L69.0223 32.2984L68.4968 32.8367L68.1704 32.7521C67.9533 31.9908 68.0893 30.6754 67.6438 30.114C65.9014 30.9026 64.3247 33.2785 62.8308 34.5353L62.4259 33.6131L62.3003 33.2027C62.2213 32.429 61.8926 32.0301 61.4035 31.4455C60.5828 32.3125 59.7676 33.1857 58.9369 34.0431C58.2349 34.4465 58.0995 34.668 57.3166 34.4584C58.9619 32.6848 60.5378 30.9938 61.9969 29.0555L62.3606 28.7784C62.1142 28.4744 61.8941 28.1577 61.6737 27.8349L61.8336 27.4112C62.2715 27.1738 62.7071 27.0335 63.1811 26.8884L63.4312 26.4127L64.2474 26.1012C66.2218 25.2312 68.6765 24.8236 70.7706 24.2822Z"/>
	<path fill="#B0AEAE" transform="scale(3.25444 3.25418)" d="M61.4035 31.4455C62.464 30.4577 63.6275 29.7264 64.9021 29.0438C64.1524 30.4443 62.7479 32.0985 62.4259 33.6131L62.3003 33.2027C62.2213 32.429 61.8926 32.0301 61.4035 31.4455Z"/>
	<path fill="#363536" transform="scale(3.25444 3.25418)" d="M70.7706 24.2822C71.0907 24.9276 71.0357 25.1033 70.9341 25.8179C69.2951 26.0842 66.1883 27.3319 64.6886 26.5962L64.2474 26.1012C66.2218 25.2312 68.6765 24.8236 70.7706 24.2822Z"/>
	<defs>
		<linearGradient id="gradient_13" gradientUnits="userSpaceOnUse" x1="75.435112" y1="66.237785" x2="58.719448" y2="63.506413">
			<stop offset="0" stop-color="#716F6F"/>
			<stop offset="1" stop-color="#A7A7A7"/>
		</linearGradient>
	</defs>
	<path fill="url(#gradient_13)" transform="scale(3.25444 3.25418)" d="M62.8308 34.5353C64.3247 33.2785 65.9014 30.9026 67.6438 30.114C68.0893 30.6754 67.9533 31.9908 68.1704 32.7521L68.4968 32.8367L69.0223 32.2984L69.0046 32.0635C71.0071 33.2822 71.1026 33.4532 71.9745 35.7308C70.3368 37.4045 70.1978 44.855 70.2237 47.2989C70.2467 49.4678 70.3567 60.7208 71.4762 61.9064C71.5043 61.9361 71.5307 61.9675 71.56 61.9961C71.5778 62.0135 71.5982 62.0282 71.6172 62.0442C71.5764 63.3611 70.7252 64.0202 70.5013 65.2044L70.4219 66.1412C70.2008 66.2656 70.1471 66.3267 69.8886 66.3034C69.8713 67.1155 69.7145 68.123 70.214 68.8096C70.6566 69.1754 70.99 69.2382 71.5492 69.3125C70.3527 79.3153 69.3109 95.6841 71.8002 105.45L71.4508 105.58C69.451 102.432 70.1727 98.5002 67.7086 94.9552C67.4052 87.6645 70.9168 80.2021 69.0124 72.9643C68.7228 71.8591 68.7198 70.5747 68.5544 69.4312C68.4211 68.4331 68.1182 67.8048 67.6062 66.9577C66.8772 65.2018 65.8644 63.92 64.7494 62.4C65.1425 62.1876 65.5067 62.0196 65.768 61.6405C65.8172 59.8762 64.6024 58.2333 64.4769 56.4085C64.252 53.1397 64.9401 49.814 64.9257 46.5342C64.9069 42.2444 63.6592 38.6553 62.8308 34.5353Z"/>
	<defs>
		<linearGradient id="gradient_14" gradientUnits="userSpaceOnUse" x1="75.307602" y1="43.129566" x2="61.692394" y2="56.620434">
			<stop offset="0" stop-color="#C8C8D0"/>
			<stop offset="1" stop-color="#FCF9F4"/>
		</linearGradient>
	</defs>
	<path fill="url(#gradient_14)" transform="scale(3.25444 3.25418)" d="M69.0046 32.0635C71.0071 33.2822 71.1026 33.4532 71.9745 35.7308C70.3368 37.4045 70.1978 44.855 70.2237 47.2989C70.2467 49.4678 70.3567 60.7208 71.4762 61.9064C71.5043 61.9361 71.5307 61.9675 71.56 61.9961C71.5778 62.0135 71.5982 62.0282 71.6172 62.0442C71.5764 63.3611 70.7252 64.0202 70.5013 65.2044L70.4219 66.1412C70.2008 66.2656 70.1471 66.3267 69.8886 66.3034C69.4067 65.3323 69.0101 64.3942 68.78 63.331C67.5347 57.577 67.6399 51.5856 67.445 45.7296C67.2991 41.3468 66.897 36.7554 67.4516 32.3947L68.3363 37.2609C69.0755 36.0954 68.9891 33.6824 69.0223 32.2984L69.0046 32.0635Z"/>
	<path fill="#B0AEAE" transform="scale(3.25444 3.25418)" d="M69.0046 32.0635C71.0071 33.2822 71.1026 33.4532 71.9745 35.7308C70.3368 37.4045 70.1978 44.855 70.2237 47.2989C70.2467 49.4678 70.3567 60.7208 71.4762 61.9064C71.5043 61.9361 71.5307 61.9675 71.56 61.9961C71.5778 62.0135 71.5982 62.0282 71.6172 62.0442C71.5764 63.3611 70.7252 64.0202 70.5013 65.2044C69.6899 61.4378 69.0633 49.4623 69.1667 45.2983C69.2077 43.6458 69.6946 42.0107 69.6934 40.3624C69.6927 39.5121 69.4053 39.4358 68.8509 38.8646C68.3635 38.3624 68.3227 37.9395 68.3363 37.2609C69.0755 36.0954 68.9891 33.6824 69.0223 32.2984L69.0046 32.0635Z"/>
</svg>
