<svg class="border shadow-md dark:border-slate-700" viewBox="0 0 874.72 437.36" style="width: 874.72px; height: 437.36px;" xmlns="http://www.w3.org/2000/svg" preserveAspectRatio="none"><rect class="bg" id="bg" x="0" y="0" width="874.72" height="437.36" fill="#000000"></rect><path d="M 0 -62.480000000000004 L 0 -62.48
                L 29.16 -31.24
                L 87.47200000000001 -62.48 L 87.47200000000001 -62.48
                L 116.63 -31.24
                L 174.94400000000002 -62.48 L 174.94400000000002 -62.48
                L 221.94 -31.24
                L 262.41600000000005 -62.48 L 262.41600000000005 -62.48
                L 295.42 -31.24
                L 349.88800000000003 -62.48 L 349.88800000000003 -62.48
                L 413.89 -31.24
                L 437.36 -62.48 L 437.36 -62.48
                L 494.36 -31.24
                L 524.832 -62.48 L 524.8320000000001 -62.48
                L 582.83 -15.48
                L 612.3040000000001 -62.48 L 612.3040000000001 -62.48
                L 665.30 -31.24
                L 699.7760000000001 -62.48 L 699.7760000000001 -62.48
                L 728.93 -31.24
                L 787.248 -62.48 L 787.248 -62.48
                L 816.41 -31.24
                L 874.72 -62.48 L 874.72 -62.48
                L 903.88 -31.24
                L 962.192 -62.48  H 924.72 V 537.36 H -100 V -62.48100 H 0 Z" fill="none" stroke="#F95164" stroke-width="10"></path><path d="M 0 0 L 0 0.00
                L 29.16 53.00
                L 87.47200000000001 0.00 L 87.47200000000001 0.00
                L 137.47 42.00
                L 174.94400000000002 0.00 L 174.94400000000002 0.00
                L 204.10 40.00
                L 262.41600000000005 0.00 L 262.41600000000005 0.00
                L 310.42 31.24
                L 349.88800000000003 0.00 L 349.88800000000003 0.00
                L 379.05 31.24
                L 437.36 0.00 L 437.36 0.00
                L 487.36 51.00
                L 524.832 0.00 L 524.8320000000001 0.00
                L 579.83 31.24
                L 612.3040000000001 0.00 L 612.3040000000001 0.00
                L 669.30 31.24
                L 699.7760000000001 0.00 L 699.7760000000001 0.00
                L 728.93 39.00
                L 787.248 0.00 L 787.248 0.00
                L 821.25 31.24
                L 874.72 0.00 L 874.72 0.00
                L 918.72 42.00
                L 962.192 0.00  H 924.72 V 537.36 H -100 V 0.00100 H 0 Z" fill="none" stroke="#da4a61" stroke-width="10"></path><path d="M 0 62.480000000000004 L 0 62.48
                L 29.16 93.72
                L 87.47200000000001 62.48 L 87.47200000000001 62.48
                L 116.63 93.72
                L 174.94400000000002 62.48 L 174.94400000000002 62.48
                L 237.94 93.72
                L 262.41600000000005 62.48 L 262.41600000000005 62.48
                L 291.57 93.72
                L 349.88800000000003 62.48 L 349.88800000000003 62.48
                L 406.89 106.48
                L 437.36 62.48 L 437.36 62.48
                L 468.36 100.48
                L 524.832 62.48 L 524.8320000000001 62.48
                L 577.83 99.48
                L 612.3040000000001 62.48 L 612.3040000000001 62.48
                L 671.30 93.72
                L 699.7760000000001 62.48 L 699.7760000000001 62.48
                L 728.93 93.72
                L 787.248 62.48 L 787.248 62.48
                L 816.41 98.48
                L 874.72 62.48 L 874.72 62.48
                L 903.88 93.72
                L 962.192 62.48  H 924.72 V 537.36 H -100 V 62.48100 H 0 Z" fill="none" stroke="#bb435e" stroke-width="10"></path><path d="M 0 124.96000000000001 L 0 124.96
                L 29.16 176.96
                L 87.47200000000001 124.96 L 87.47200000000001 124.96
                L 116.63 156.20
                L 174.94400000000002 124.96 L 174.94400000000002 124.96
                L 204.10 156.20
                L 262.41600000000005 124.96 L 262.41600000000005 124.96
                L 291.57 156.20
                L 349.88800000000003 124.96 L 349.88800000000003 124.96
                L 410.89 158.96
                L 437.36 124.96 L 437.36 124.96
                L 483.36 156.20
                L 524.832 124.96 L 524.8320000000001 124.96
                L 554.83 165.96
                L 612.3040000000001 124.96 L 612.3040000000001 124.96
                L 645.30 156.20
                L 699.7760000000001 124.96 L 699.7760000000001 124.96
                L 729.78 156.20
                L 787.248 124.96 L 787.248 124.96
                L 845.25 156.20
                L 874.72 124.96 L 874.72 124.96
                L 913.72 164.96
                L 962.192 124.96  H 924.72 V 537.36 H -100 V 124.96100 H 0 Z" fill="none" stroke="#9c3c5b" stroke-width="10"></path><path d="M 0 187.44 L 0 187.44
                L 29.16 218.68
                L 87.47200000000001 187.44 L 87.47200000000001 187.44
                L 116.63 218.68
                L 174.94400000000002 187.44 L 174.94400000000002 187.44
                L 204.10 236.44
                L 262.41600000000005 187.44 L 262.41600000000005 187.44
                L 291.57 218.68
                L 349.88800000000003 187.44 L 349.88800000000003 187.44
                L 395.89 229.44
                L 437.36 187.44 L 437.36 187.44
                L 466.52 233.44
                L 524.832 187.44 L 524.8320000000001 187.44
                L 553.99 218.68
                L 612.3040000000001 187.44 L 612.3040000000001 187.44
                L 641.46 235.44
                L 699.7760000000001 187.44 L 699.7760000000001 187.44
                L 731.78 218.68
                L 787.248 187.44 L 787.248 187.44
                L 829.25 218.68
                L 874.72 187.44 L 874.72 187.44
                L 937.72 218.68
                L 962.192 187.44  H 924.72 V 537.36 H -100 V 187.44100 H 0 Z" fill="none" stroke="#7d3558" stroke-width="10"></path><path d="M 0 249.92000000000002 L 0 249.92
                L 29.16 297.92
                L 87.47200000000001 249.92 L 87.47200000000001 249.92
                L 127.47 281.16
                L 174.94400000000002 249.92 L 174.94400000000002 249.92
                L 219.94 297.92
                L 262.41600000000005 249.92 L 262.41600000000005 249.92
                L 291.57 281.16
                L 349.88800000000003 249.92 L 349.88800000000003 249.92
                L 379.05 296.92
                L 437.36 249.92 L 437.36 249.92
                L 466.52 301.92
                L 524.832 249.92 L 524.8320000000001 249.92
                L 572.83 281.16
                L 612.3040000000001 249.92 L 612.3040000000001 249.92
                L 663.30 293.92
                L 699.7760000000001 249.92 L 699.7760000000001 249.92
                L 737.78 281.16
                L 787.248 249.92 L 787.248 249.92
                L 843.25 305.92
                L 874.72 249.92 L 874.72 249.92
                L 931.72 281.16
                L 962.192 249.92  H 924.72 V 537.36 H -100 V 249.92100 H 0 Z" stroke="#5e2e55" stroke-width="10" fill="none"></path><path d="M 0 312.40000000000003 L 0 312.40
                L 29.16 350.40
                L 87.47200000000001 312.40 L 87.47200000000001 312.40
                L 147.47 343.64
                L 174.94400000000002 312.40 L 174.94400000000002 312.40
                L 210.94 361.40
                L 262.41600000000005 312.40 L 262.41600000000005 312.40
                L 296.42 343.64
                L 349.88800000000003 312.40 L 349.88800000000003 312.40
                L 394.89 362.40
                L 437.36 312.40 L 437.36 312.40
                L 466.52 343.64
                L 524.832 312.40 L 524.8320000000001 312.40
                L 569.83 343.64
                L 612.3040000000001 312.40 L 612.3040000000001 312.40
                L 641.46 343.64
                L 699.7760000000001 312.40 L 699.7760000000001 312.40
                L 728.93 343.64
                L 787.248 312.40 L 787.248 312.40
                L 816.41 357.40
                L 874.72 312.40 L 874.72 312.40
                L 927.72 343.64
                L 962.192 312.40  H 924.72 V 537.36 H -100 V 312.40100 H 0 Z" stroke="#3f2752" stroke-width="10" fill="none"></path><path d="M 0 374.88 L 0 374.88
                L 51.00 406.12
                L 87.47200000000001 374.88 L 87.47200000000001 374.88
                L 116.63 430.88
                L 174.94400000000002 374.88 L 174.94400000000002 374.88
                L 238.94 427.88
                L 262.41600000000005 374.88 L 262.41600000000005 374.88
                L 291.57 406.12
                L 349.88800000000003 374.88 L 349.88800000000003 374.88
                L 379.05 417.88
                L 437.36 374.88 L 437.36 374.88
                L 495.36 407.88
                L 524.832 374.88 L 524.8320000000001 374.88
                L 553.99 410.88
                L 612.3040000000001 374.88 L 612.3040000000001 374.88
                L 641.46 406.12
                L 699.7760000000001 374.88 L 699.7760000000001 374.88
                L 743.78 406.12
                L 787.248 374.88 L 787.248 374.88
                L 816.41 426.88
                L 874.72 374.88 L 874.72 374.88
                L 903.88 432.88
                L 962.192 374.88  H 924.72 V 537.36 H -100 V 374.88100 H 0 Z" stroke="#20204f" stroke-width="10" fill="none"></path></svg>