<?xml version="1.0" encoding="utf-8" ?>
<svg xmlns="http://www.w3.org/2000/svg" xmlns:xlink="http://www.w3.org/1999/xlink" width="400" height="400">
	<defs>
		<linearGradient id="gradient_0" gradientUnits="userSpaceOnUse" x1="217.37543" y1="378.76392" x2="218.7234" y2="377.77917">
			<stop offset="0" stop-color="white" stop-opacity="0.93725491"/>
			<stop offset="1" stop-color="white" stop-opacity="0.96862745"/>
		</linearGradient>
	</defs>
	<path fill="url(#gradient_0)" d="M217.339 377.335C218.385 377.571 219.417 377.826 220.448 378.121L219.878 378.44L222.375 380.168C219.487 380.133 216.579 379.081 213.813 378.301C214.934 378.062 216.569 378.158 217.339 377.335Z"/>
	<path fill="white" d="M99.4583 53.5745C96.4297 47.0621 94.3172 47.9271 90.0581 43.6213C88.2143 41.7572 86.9233 39.512 84.7743 37.932C81.0701 35.2087 74.6125 34.0439 72.8871 29.2744C72.5672 28.3901 72.4812 27.4713 72.5941 26.5398C72.6897 25.7512 74.7786 19.1682 75.1194 18.4289C75.9629 16.5994 77.498 14.9582 79.4346 14.3024C80.7057 13.8718 82.1662 13.9347 83.3608 14.5674C85.5405 15.7218 86.1267 18.4054 87.7483 20.1064C90.3542 22.8398 93.2598 25.7519 96.122 28.1989C97.5534 29.4228 99.3428 30.1689 100.623 31.5785C102.235 33.3546 102.998 35.8363 104.281 37.8467C105.405 39.6061 107.082 41.1808 108.485 42.727C109.69 44.0538 110.915 45.646 112.297 46.7856C113.765 47.9966 115.456 48.8666 116.85 50.1823C122.439 55.4557 127.811 61.6977 132.199 67.9921C134.684 71.5568 137.317 75.5407 139.094 79.5074C140.109 81.7754 140.745 84.1616 141.945 86.3581C143.118 88.5067 144.926 90.2022 146.29 92.217C148.141 94.95 149.519 98.0183 151.335 100.78C152.306 102.256 153.507 103.707 154.979 104.709C156.031 105.425 157.354 105.899 158.12 106.959C159.355 108.668 159.817 111.063 160.368 113.071C164.122 116.264 166.61 118.372 169.326 122.586C170.32 124.128 171.052 126.085 172.327 127.402C174.359 129.499 177.601 129.995 179.395 132.437C181.762 135.656 182.714 141.111 185.905 143.635C187.329 144.761 190.144 142.631 191.811 142.459C191.895 142.45 192.242 142.432 192.331 142.433C196.592 142.461 198.152 148.212 201.18 150.16C204.102 152.039 207.993 150.306 210.968 152.804C212.966 154.482 214.03 157.299 214.209 159.835C216.589 160.278 220.331 161.72 222.197 161.932C223.566 162.088 225.226 160.981 226.741 161.008C231.767 161.097 237.89 163.445 242.547 165.369Q242.628 163.258 242.656 161.145C242.688 158.28 242.609 155.187 240.928 152.736C238.366 149.001 233.646 147.703 230.117 145.116C224.565 141.046 219.928 135.728 215.072 130.902C213.763 129.601 213.584 127.83 212.363 126.486C206.937 120.513 201.078 115.001 195.53 109.151C194.125 107.669 188.795 102.684 188.224 101.029C187.259 98.2327 191.458 90.7899 192.423 87.8654C193.487 84.6419 185.659 84.9006 184.136 81.1733C183.651 79.9876 183.967 79.1496 184.453 78.0308C185.115 76.5048 184.225 74.8263 184.303 73.2003C184.353 72.1592 184.801 71.057 185.648 70.4076C187.722 68.8186 194.474 68.384 197.037 68.827C200.903 69.4951 202.301 74.0727 204.316 76.9656C206.467 77.8086 208.277 78.8749 210.035 80.3902C212.379 82.4113 214.08 85.0707 216.223 87.2917C219.377 90.5598 222.657 93.7057 225.778 97.0066C230.094 101.57 234.286 106.367 238.482 111.046C240.391 113.176 241.78 115.94 243.933 117.829C245.643 119.33 247.955 119.926 249.859 121.12C253.526 123.419 252.811 127.372 253.641 131.055C256.18 133.155 259.235 134.616 261.823 136.693C264.091 138.512 265.602 141.116 267.728 143.098C272.781 147.809 277.257 150.983 282.056 156.314C283.36 157.763 284.774 159.219 285.704 160.949C286.481 162.393 286.886 163.993 287.325 165.562C290.466 176.8 289.583 177.065 283.879 187.145C281.935 190.582 279.961 194.216 277.681 197.436C274.006 202.627 265.337 211.859 259.844 214.962C257.743 216.148 255.481 216.782 253.175 217.425C254.466 219.461 255.924 221.247 257.612 222.966C259.64 223.009 261.975 222.873 263.73 221.743C265.671 220.493 266.618 218.062 268.221 216.444C272.493 212.131 279.026 206.899 282.556 202.205C283.993 200.295 285.119 198.146 286.275 196.058C287.091 194.584 288.128 192.993 288.581 191.367C289.342 188.639 289.443 184.812 289.526 181.958C289.562 180.728 289.385 179.242 289.712 178.059C290.2 176.292 291.95 173.957 292.891 172.324C294.056 170.301 295.176 168.025 296.667 166.229C298.892 163.549 304.085 160.521 307.092 158.542C308.669 157.505 310.545 156.524 311.857 155.165C314.073 152.868 314.068 148.575 317.023 146.906L317.211 147.062C317.209 147.684 317.16 148.24 317.449 148.812C319.214 148.83 323.031 145.469 324.708 144.474C323.927 146.161 322.967 147.786 322.078 149.419Q326.394 148.239 330.585 146.669C329.545 148.251 328.624 149.924 327.668 151.558C328.81 151.393 329.852 151.091 330.97 150.843C332.188 150.573 335.521 149.895 336.527 150.52C336.832 151.649 336.023 152.68 336.107 153.854L336.528 154.021C337.14 153.626 337.622 153.327 338.338 153.168C340.12 154.17 338.191 155.945 339.105 157.304C339.7 157.384 340.209 157.428 340.736 157.745C341.272 159.08 342.518 166.15 342.593 167.614C342.64 168.544 342.276 169.668 342.062 170.576C342.64 172.179 343.178 173.765 343.221 175.485C343.335 180.006 339.444 181.604 337.196 184.78C336.188 186.205 335.76 187.984 334.525 189.266C333.03 191.838 327.147 194.757 324.248 195.555C323.406 195.787 322.541 195.909 321.673 195.994C314.887 197.636 308.34 198.178 303.427 203.853C302.36 205.084 301.604 206.55 300.633 207.851C300.124 208.534 299.389 209.059 298.915 209.759C297.663 211.611 298.825 221.903 298.495 224.757C298.108 228.095 296.53 231.024 295.519 234.182C294.687 236.781 294.139 239.323 292.333 241.465C290.155 244.047 286.862 245.425 284.313 247.592C279.668 251.541 275.285 255.312 269.298 257.037C264.907 258.302 254.096 260.231 249.571 260.183C248.506 260.172 247.399 260.024 246.456 259.5C245.603 259.026 245.15 257.894 244.713 257.058C241.874 259.288 238.47 261.818 234.63 261.375C230.724 260.925 226.654 258.878 223.093 257.281C216.826 254.472 208.737 251.341 204.422 245.694C203.839 244.932 203.472 244.109 203.25 243.177C202.848 241.488 203.089 239.681 202.829 237.97C202.506 235.85 201.618 233.673 201.523 231.538C201.458 230.067 202.001 228.579 201.938 227.103C201.917 226.615 201.862 226.34 201.467 226.038C200.667 226.729 200.278 233.528 200.178 234.859C199.889 238.712 199.515 244.268 201 247.862C202.335 251.094 204.187 253.403 204.572 257.031C204.796 259.138 204.748 261.298 204.806 263.417C204.877 265.982 205.148 268.55 205.134 271.115C205.108 275.918 204.702 280.715 204.821 285.524C204.95 290.694 206.193 295.79 206.448 300.968C206.792 307.932 205.416 314.312 204.606 321.162C203.723 328.634 203.485 339.22 204.298 346.688C204.801 351.308 207.521 356.863 210.535 360.387C213.136 363.428 220.852 369.442 224.591 370.846C226.522 371.571 228.658 371.597 230.63 372.255L230.821 372.47C232.173 373.969 236.255 375.845 235.951 378.194C235.868 378.837 235.509 379.284 234.981 379.637C231.653 381.862 226.13 379.861 222.375 380.168L219.878 378.44L220.448 378.121C219.417 377.826 218.385 377.571 217.339 377.335C216.569 378.158 214.934 378.062 213.813 378.301Q212.458 377.839 211.054 377.56Q209.651 377.281 208.222 377.191Q206.793 377.101 205.366 377.202Q203.938 377.302 202.536 377.591C200.845 377.939 199.069 378.395 197.342 378.443C196.133 378.476 194.814 378.21 193.618 378.033C191.375 377.527 189.39 376.654 187.365 375.578C186.936 374.771 186.629 373.896 186.294 373.048C186.289 372.824 186.29 372.599 186.283 372.375C186.127 367.445 187.346 362.671 186.919 357.665C186.379 351.333 184.158 345.458 183.806 339.049C177.316 337.059 168.957 338.13 163.236 334.29C160.458 327.28 165.344 307.038 165.508 298.381C165.633 291.735 164.903 285.102 164.605 278.471C164.37 273.24 164.61 268.001 164.506 262.769C164.425 258.73 163.97 254.697 163.831 250.657C163.592 243.694 164.49 236.648 163.816 229.703C163.447 225.9 162.397 222.221 161.62 218.49C160.725 214.197 160.056 209.745 159.64 205.381C159.271 201.511 159.22 197.476 159.25 193.589C159.268 191.294 159.779 188.457 159.273 186.231C158.747 183.919 156.947 181.778 156.056 179.564C155.149 177.312 155.053 174.752 153.824 172.616C152.473 170.267 150.377 168.42 149.092 165.982C147.151 162.297 145.743 158.352 143.714 154.697C142.388 152.307 140.563 150.229 139.171 147.884C137.105 144.404 135.666 140.522 133.68 136.984C129.968 130.371 125.701 124.042 122.007 117.409C120.396 114.515 119.436 111.281 117.806 108.412C116.119 105.442 113.768 102.867 112.066 99.8966C110.255 96.7374 109.499 93.1439 107.685 90.0152C104.043 83.7329 98.1553 78.9799 95.8375 71.901C94.06 66.4722 97.0088 58.3774 99.4583 53.5745ZM209.974 160.117C206.784 164.072 205.775 173.323 203.325 178.776C205.529 179.774 207.187 180.903 208.981 182.522C210.125 187.433 209.081 190.857 206.467 195.096Q206.094 195.698 205.66 196.257L205.724 195.978C206.649 192.137 210.324 187.073 207.85 183.151C206.739 181.389 204.678 180.621 202.877 179.77C194.789 185.409 189.895 194.322 188.207 203.9C187.605 207.31 187.303 210.772 186.741 214.19Q185.374 222.096 183.381 229.867C181.933 235.692 178.545 243.104 178.07 248.611C179.262 251.565 180.631 252.751 183.413 254.17C183.576 247.394 185.373 240.442 186.83 233.839C187.583 230.428 188.235 226.94 189.185 223.579C190.11 220.309 191.458 217.154 192.273 213.853Q193.82 207.319 195.252 200.759C195.998 197.24 196.583 193.6 197.805 190.209C198.313 188.801 199.09 187.214 200.133 186.119C200.65 185.576 200.915 185.474 201.64 185.337L202.15 185.671C202.201 186.423 201.967 187.057 201.769 187.773C200.967 190.681 200.905 192.471 202.094 195.331L200.946 198.735C201.319 199.605 201.84 200.47 201.63 201.431L201.274 201.516C201.096 201.273 198.989 196.036 198.953 195.832L199.162 195.599C199.694 195.879 200.273 196.347 200.859 196.203C201.28 194.666 199.901 193.18 199.967 191.629C200.014 190.511 200.771 189.176 200.449 188.111L200.075 188.121C199.333 189.094 198.945 190.266 198.652 191.445C197.745 194.806 195.328 202.031 197.285 205.207C197.667 205.827 198.225 206.271 198.958 206.373C200.332 206.565 203.719 203.269 204.378 203.669C203.649 205.253 201.318 206.814 199.744 207.49C198.862 207.462 197.883 207.036 197.079 207.308C196.607 208.926 197.687 213.108 197.397 215.543C197.084 218.173 196.573 220.776 196.285 223.411C196.022 225.821 196.036 228.228 195.59 230.622C194.592 235.976 192.851 241.069 192.338 246.535C191.724 253.066 192.288 260.105 192.704 266.655C192.868 269.251 192.696 272.983 193.855 275.274C194.572 275.735 194.972 275.826 195.836 275.665C197.675 275.324 200.185 274.129 201.172 272.479C202.891 269.604 200.331 257.233 199.942 253.631Q199.336 248.034 199.135 242.407C198.965 237.422 199.459 232.691 199.678 227.741C199.936 221.933 199.407 215.849 203.212 211.016L203.167 211.388C202.974 212.888 202.433 214.056 202.044 215.483C201.356 218.013 200.469 222.306 201.142 224.87L201.486 225.26C202.277 225.035 202.721 224.038 203.102 223.347C203.697 222.266 204.197 221.21 204.584 220.039C204.613 219.949 204.648 219.861 204.674 219.771C204.935 218.885 203.94 215.312 203.973 213.76C203.988 213.082 204.195 211.896 203.892 211.292C203.771 211.052 203.583 211.022 203.339 210.97C202.838 210.863 202.258 210.933 201.747 210.954L201.521 210.637C202.24 210.064 203.179 209.855 204.044 209.576C204.669 208.766 205.269 207.98 205.636 207.017C206.559 204.6 206.886 201.991 207.682 199.532C209.835 192.88 212.323 186.249 214.162 179.505C215.125 175.977 215.63 171.908 217.263 168.634C218.363 166.429 220.26 164.772 221.801 162.886C218.011 161.427 213.945 160.88 209.974 160.117ZM192.341 146.792C191.687 148.787 190.936 151.327 191.973 153.305C192.766 154.818 194.148 155.335 195.605 156.035C190.477 159.442 187.652 164.345 183.484 168.649C182.346 169.824 179.496 171.031 178.981 172.45C178.419 173.998 180.186 179.212 180.388 181.157C180.951 186.588 180.258 192.029 180.191 197.452C180.162 199.785 180.422 202.138 180.635 204.46C177.976 209.277 171.556 215.95 170.026 220.174C171.364 222.193 173.434 223.709 175.032 225.529C176.359 227.04 177.833 229.83 179.455 230.855L179.991 230.752C180.251 230.208 180.406 229.867 180.174 229.266C179.923 228.618 179.373 227.944 178.967 227.377C177.889 225.847 172.26 220.639 172.127 219.608C172.902 218.061 179.621 208.634 180.595 207.524C180.88 207.199 181.252 207.069 181.633 206.893C181.776 206.827 181.912 206.745 182.053 206.674C182.15 206.626 182.248 206.58 182.345 206.534C183.035 203.391 182.488 199.91 182.464 196.713C182.422 191.001 182.926 185.251 181.953 179.572C181.563 177.29 180.711 175.019 179.709 172.938C184.506 171.094 188.138 165.891 191.36 162.017C192.223 160.978 193.105 159.73 194.148 158.871C195.943 157.393 199.548 157.393 200.883 156.307C200.93 156.269 200.967 156.22 201.008 156.176C200.764 155.342 200.423 155.097 199.641 154.686C198.263 153.961 194.192 153.072 193.631 151.703C193.112 150.435 194.051 147.746 192.822 146.946C192.695 146.864 192.489 146.826 192.341 146.792ZM220.763 232.948C221.432 234.548 223.579 235.83 225.148 236.46C229.714 238.294 234.723 237.056 239.245 239.141C239.135 240.212 239.009 241.294 239.214 242.362C239.598 244.365 240.863 246.118 241.418 248.072C241.881 249.705 241.591 252.382 242.511 253.761C242.55 253.821 242.602 253.871 242.648 253.926C243.184 253.664 243.241 253.275 243.429 252.713C244.17 250.504 244.011 247.853 242.939 245.794C242.078 244.142 240.631 242.386 240.716 240.456C241.021 239.875 241.186 239.577 241.828 239.338C242.663 239.026 244.189 239.298 245.088 239.355C246.673 242.57 250.077 250.007 253.567 251.208Q255.28 251.812 257.096 251.84L257.482 251.646C256.432 250.984 255.216 250.622 254.218 249.885C251.222 247.67 248.244 242.741 246.358 239.494L246.649 239.11C249.603 238.965 253.768 240.342 255.941 242.33C256.533 242.871 257.06 243.48 257.585 244.085C259.851 246.062 262.399 247.137 265.273 247.953C263.767 246.609 262.068 245.647 260.476 244.427C258.724 243.085 257.104 241.577 255.432 240.138C254.574 239.399 253.688 238.832 252.969 237.935C260.487 240.512 267.765 243.436 275.834 243.341C276.727 243.331 278.174 243.473 278.989 243.106C279.056 243.075 279.115 243.029 279.178 242.991L279.098 242.621C276.607 241.365 272.821 241.885 270.05 241.32C265.237 240.339 259.33 237.302 254.636 237.229C250.082 237.159 245.38 239.134 240.804 238.322C238.597 237.93 236.439 237.034 234.236 236.558C231.726 236.016 228.914 236.066 226.487 235.308C224.552 234.704 222.75 233.329 220.763 232.948ZM285.742 199.369C284.365 201.599 282.921 203.672 281.158 205.621C286.299 207.442 291.183 210.462 296.783 210.422C298.345 208.781 300.133 207.273 301.23 205.272C296.973 204.683 293.783 203.009 289.982 201.143C288.713 200.52 287.122 199.613 285.742 199.369ZM328.96 185.791L328.796 186.391C327.806 186.246 326.947 185.965 326.036 186.511C326.067 186.868 326.072 186.954 326.271 187.269C325.758 187.754 325.361 187.986 324.634 187.998C322.979 188.023 320.924 187.148 319.583 188.411C319.539 188.452 319.498 188.495 319.456 188.537C319.122 189.069 318.705 188.962 318.18 189.238C318.211 189.289 318.24 189.341 318.274 189.391C319.197 190.752 322.875 192.382 324.501 192.697C325.262 192.845 326.099 192.804 326.872 192.794C326.562 193.579 326.192 193.723 325.429 194.069C325.368 194.096 325.305 194.12 325.243 194.146L325.447 194.137C324.191 194.594 322.489 194.939 321.673 195.994C322.541 195.909 323.406 195.787 324.248 195.555C327.147 194.757 333.03 191.838 334.525 189.266C333.465 189.355 332.614 190.374 331.645 190.831C330.441 190.084 331.097 188.708 330.863 187.501C330.76 186.97 330.436 186.588 330.29 186.083C330.195 185.755 330.137 185.364 329.896 185.103C329.277 184.435 328.423 184.312 327.569 184.34C327.191 184.352 327.383 184.359 327.014 184.338C326.96 184.335 326.906 184.33 326.852 184.327L326.721 184.549L327.045 184.886C327.606 185.031 328.34 185.137 328.758 185.565C328.829 185.637 328.893 185.716 328.96 185.791ZM172.535 252.599C173.118 255.469 174.644 258.219 175.693 260.947C179.032 269.628 180.051 275.046 188.363 280.501C188.867 280.832 189.261 281.039 189.855 281.171C187.911 277.4 184.391 274.911 182.402 271.148C180.613 267.763 176.435 253.51 173.315 252.728Q172.93 252.631 172.535 252.599ZM179.04 289.806C180.625 294.829 187.045 304.706 191.81 307.152C193.435 307.986 195.288 308.022 196.946 308.703C197.903 309.096 199.303 310.378 200.274 310.395C200.217 309.449 199.972 308.964 199.253 308.339C196.894 306.284 193.451 305.795 191.087 303.537C188.572 301.134 181.744 290.331 179.04 289.806ZM165.778 331.797C166.402 332.855 167.323 333.097 168.474 333.387C173.254 334.591 186.44 335.184 191.159 334.166C191.043 333.409 191.091 333.32 190.509 332.772C187.061 331.565 179.682 332.325 175.873 332.324C172.56 332.322 169.075 332.101 165.778 331.797ZM293.366 185.941C294.371 188.516 297.749 190.693 300.181 191.757C304.897 193.821 310.699 193.418 315.454 191.707C315.908 191.252 316.129 191.181 316.173 190.523C315.317 189.975 309.511 190.843 307.999 190.8C303.38 190.67 300.271 189.304 296.239 187.241C295.379 186.801 294.324 186.078 293.366 185.941ZM195.927 170.476C193.812 171.683 191.018 173.462 189.868 175.671L189.926 176.074C191.758 175.997 192.838 174.472 194.346 173.7C192.762 176.959 190.405 179.464 189.197 182.939C188.793 184.576 188.421 186.189 188.172 187.859C189.108 186.004 189.985 184.093 191.017 182.289C192.556 179.601 197.283 174.082 196.262 170.873L195.927 170.476ZM238.012 168.564C234.864 169.86 231.19 169.756 228.287 171.023C227.382 171.418 226.707 171.993 226.346 172.929C225.415 175.339 226.238 180.19 226.653 182.721C227.898 179.766 227.541 176.266 228.622 173.178C231.364 172.228 236.365 171.705 238.215 169.441C238.247 168.967 238.291 168.939 238.012 168.564ZM167.822 149.665C166.922 150.863 166.602 152.346 165.686 153.517C161.802 158.482 158.396 158.823 159.475 166.467C159.539 166.924 159.571 166.982 159.864 167.328C160.436 165.173 160.849 162.54 162.003 160.633C163.773 157.71 170.143 154.397 167.908 149.809C167.884 149.759 167.851 149.713 167.822 149.665ZM210.21 87.9001C206.268 90.4288 200.023 98.7079 199.091 103.364C199.037 103.638 199.053 103.715 199.067 103.961C199.438 104.017 199.281 104.058 199.55 103.902C201.788 100.098 205.241 95.9173 208.07 92.494C208.749 91.6728 210.926 89.713 211.176 88.8673C211.228 88.6914 211.17 88.5005 211.167 88.3172C210.825 88.0726 210.629 87.9568 210.21 87.9001ZM274.879 159.341C272.358 159.612 269.767 159.8 267.274 160.254C265.356 160.603 263.402 161.2 261.46 161.37C259.277 161.561 257.097 160.942 254.893 161.11C257.046 161.964 259.119 162.507 261.401 162.873C263.453 162.772 265.395 162.215 267.404 161.836C269.725 161.399 272.102 161.074 274.445 160.787C275.65 160.639 279.248 160.72 280.01 160.103L279.92 159.683C278.593 159.039 276.323 159.154 274.879 159.341ZM202.353 78.1384C197.306 82.3498 196.272 82.7725 194.443 89.3724C194.144 90.4512 193.49 91.9905 193.481 93.0642C193.479 93.3351 193.504 93.3632 193.576 93.5857L193.916 93.6204C196.968 88.5132 196.286 86.2701 201.129 81.9792C202.167 81.0599 203.275 80.1515 202.946 78.6609L202.353 78.1384ZM245.079 155.662C246.282 159.954 251.549 162.216 254.798 164.635C256.83 166.148 258.831 167.987 261.018 169.259C261.369 169.464 261.725 169.57 262.122 169.646C258.811 164.891 254.444 162.925 250.2 159.615C248.757 158.488 246.847 155.98 245.079 155.662ZM210.163 203.866C210.075 205.141 210.401 206.415 210.633 207.662C209.692 209.291 208.842 210.554 209.361 212.513C209.758 214.01 211.18 215.236 212.508 215.941Q212.801 216.099 213.099 216.245C213.44 215.43 213.151 215.029 212.822 214.251C212.389 213.228 211.871 212.281 211.62 211.189C212.35 209.437 213.023 207.636 212.182 205.769C211.765 204.843 211.116 204.207 210.163 203.866ZM109.478 56.4297L109.288 56.622C106.044 59.8624 102.149 60.9661 102.129 66.3461C102.12 68.6456 102.483 71.5073 103.212 73.6938C103.535 70.1977 102.755 63.9114 105.702 61.4416C106.99 60.3619 109.625 58.9083 109.998 57.2283C109.837 56.7777 109.895 56.7079 109.478 56.4297ZM218.007 234.838C217.975 234.894 217.943 234.949 217.913 235.005C216.464 237.731 216.809 241.353 214.815 243.794C213.654 245.216 210.772 246.127 210.267 246.892C210.548 247.247 210.451 247.238 210.939 247.344C212.853 247.354 213.756 247.309 215.184 245.877C217.215 243.841 219.148 238.619 218.802 235.748C218.764 235.433 218.714 235.381 218.586 235.136L218.007 234.838ZM188.492 339.02C188.596 339.654 188.517 339.794 189.094 340.185C191.773 342.004 196.951 344.031 200.217 343.237C200.338 343.208 200.457 343.174 200.577 343.142L200.746 342.405C200.614 342.255 200.511 342.074 200.351 341.955C199.999 341.694 190.567 339.008 189.843 338.964C189.581 338.948 189.33 338.957 189.069 338.972C188.949 338.98 188.828 338.983 188.708 338.993C188.636 338.999 188.564 339.011 188.492 339.02ZM219.136 184.406C219.029 185.788 220.532 187.716 221.415 188.731C224.4 192.164 228.461 194.049 232.997 194.168C233.202 194.174 233.408 194.169 233.614 194.158L233.435 193.697C230.991 192.805 227.919 191.921 225.77 190.483C224.059 189.338 220.385 184.827 219.136 184.406ZM164.888 199.101C165.094 201.08 169.504 210.78 170.857 212.125C171.165 212.185 171.46 212.253 171.774 212.268C171.388 208.396 168.519 201.966 165.543 199.452C165.325 199.268 165.15 199.203 164.888 199.101ZM106.647 45.0624C104.6 45.7961 102.81 46.7414 101.853 48.8401C101.604 49.3853 101.607 49.7042 101.758 50.2672C102.343 50.4215 102.352 50.3457 102.869 50.0481C103.112 49.9081 103.023 49.9693 103.228 49.7826L103.473 49.6125C104.837 48.674 108.782 47.6482 109.256 46.1544C109.063 45.6351 108.857 45.3514 108.311 45.1305C107.839 44.9391 107.144 45.0147 106.647 45.0624ZM327.068 173.407C325.399 174.965 324.729 177.327 323.352 179.139C322.422 180.363 320.688 181.361 320.041 182.654L320.228 182.987L320.595 183.024C323.914 181.21 326.457 179.227 327.587 175.443C327.82 174.664 327.88 174.399 327.636 173.629L327.068 173.407ZM320.422 160.386C319.575 163.158 320.757 166.963 322.099 169.438C322.876 170.871 323.774 171.99 325.29 172.685C325.342 171.569 324.304 170.467 323.843 169.427C323.142 167.844 321.682 161.558 320.933 160.787C320.694 160.541 320.677 160.548 320.422 160.386ZM272.9 181.683Q268.616 184.715 264.291 187.687C262.86 188.675 261.133 189.61 259.906 190.827L260.122 191.009C262.719 189.721 272.066 185.45 273.145 182.872C273.275 182.561 273.257 182.546 273.279 182.258L272.9 181.683ZM188.534 372.239C188.903 373.362 189.271 374.345 190.433 374.857C191.208 375.199 192.217 375.336 193.052 375.445C195.759 375.049 198.331 374.872 201.062 374.756C198.323 373.468 196.755 373.434 193.777 373.453C193.081 373.457 192.215 373.537 191.543 373.361C190.435 373.071 189.748 372.173 188.534 372.239ZM213.051 231.849C211.729 234.104 210.636 236.024 211.234 238.734L211.565 239.11C212.581 238.371 212.744 236.339 213.257 235.167L213.768 234.791L214.23 234.96C214.476 235.591 214.752 237.454 215.173 237.789C215.731 236.88 215.917 236.136 215.682 235.071C215.432 233.94 214.893 232.829 213.878 232.223C213.596 232.055 213.363 231.96 213.051 231.849ZM208.825 230.23C207.881 230.975 204.387 233.062 204.013 234.102C205.179 234.631 206.2 234.192 207.383 233.871C208.737 233.277 211.883 232.617 212.53 231.303C212.169 230.724 211.936 230.626 211.256 230.462C210.529 230.287 209.573 230.196 208.825 230.23ZM148.055 105.625C148.641 107.748 149.694 108.751 151.555 109.82C152.814 110.544 155.704 112.052 157.087 112.094C155.954 110.055 151.061 106.529 148.861 105.768C148.598 105.677 148.329 105.654 148.055 105.625ZM289.993 224.325C287.949 227.438 286.77 230.933 284.464 233.931L284.633 234.197L285.158 234.242C287.832 232.432 289.94 229.144 290.611 225.978C290.722 225.455 290.74 225.012 290.499 224.521L289.993 224.325ZM333.269 154.667C330.848 156.292 328.693 158.765 328.148 161.722C327.974 162.669 327.998 163.543 328.266 164.464L328.802 164.965C329.229 163.477 329.598 161.817 330.372 160.472C330.958 159.454 333.743 155.951 333.735 154.991L333.269 154.667ZM213.079 117.602C213.755 121.706 215.667 125.642 215.78 129.826L216.155 130.193L216.915 130.157C217.509 126.495 215.793 121.381 213.777 118.257C213.594 117.973 213.349 117.797 213.079 117.602ZM207.559 225.999C206.059 226.718 204.917 227.214 203.97 228.649L203.994 229.113C204.977 229.457 206.117 228.835 207.031 228.429C208.284 228.263 210.381 228.26 211.419 227.569L211.475 227.172C210.734 226.409 210.002 225.958 208.912 225.935C208.46 225.925 208.008 225.959 207.559 225.999ZM186.294 373.048C186.629 373.896 186.936 374.771 187.365 375.578C189.39 376.654 191.375 377.527 193.618 378.033C193.117 376.521 191.866 377.28 191.12 376.261L191.356 375.969C191.858 375.917 192.323 375.883 192.766 375.622C192.863 375.565 192.956 375.504 193.052 375.445C192.217 375.336 191.208 375.199 190.433 374.857C189.271 374.345 188.903 373.362 188.534 372.239C188.325 372.497 188.074 372.642 188.117 372.994C188.173 373.46 188.421 373.825 188.652 374.222L188.325 374.36C187.561 373.982 186.934 373.614 186.294 373.048ZM313.7 155.857C313.512 156.932 313.661 157.478 314.291 158.374C315.169 159.623 317.785 163.259 318.967 163.949C319.08 161.695 318.098 160.191 316.651 158.593C316.043 157.922 314.473 156.04 313.7 155.857ZM193.369 229.911C192.287 231.076 189.41 234.73 189.168 236.26L189.501 236.964C190.827 236.685 191.667 235.662 192.37 234.568C193.094 233.441 193.81 231.665 193.511 230.332C193.456 230.089 193.454 230.103 193.369 229.911ZM251.01 129.396C250.281 130.753 249.664 132.327 250.185 133.87C250.553 134.96 251.341 135.665 252.363 136.142C252.544 136.227 252.732 136.297 252.918 136.37L253.35 136.112C253.333 135.606 253.191 135.36 252.958 134.929C252.254 133.626 251.797 130.122 251.01 129.396ZM203.922 236.153C203.711 237.195 203.822 238.262 204.428 239.164C204.769 239.672 205.278 240.02 205.886 240.085C206.414 240.141 206.923 239.959 207.323 239.617C207.578 239.399 207.804 239.146 208.037 238.906C208.454 238.478 208.867 238.017 209.354 237.669C209.512 237.274 209.682 237.042 209.607 236.612C208.589 236.597 207.682 237.354 206.978 238.018C206.59 238.384 206.231 238.783 205.874 239.18C205.531 238.179 205.245 236.718 204.196 236.248C204.108 236.208 204.013 236.185 203.922 236.153ZM217.339 377.335C218.385 377.571 219.417 377.826 220.448 378.121C221.083 378.2 221.838 378.361 222.464 378.238C222.855 378.16 222.812 378.07 223.02 377.76L222.84 377.311C222.423 376.964 222.063 376.77 221.538 376.617C220.173 376.221 216.338 375.464 215.153 376.117C215.652 376.768 216.589 377.004 217.339 377.335ZM324.786 151.024C322.835 151.904 320.482 152.73 318.947 154.253L318.829 154.669C319.145 154.907 319.203 154.965 319.612 155.013C321.671 154.084 323.998 153.202 325.535 151.487L325.492 151.132C325.165 151.006 325.147 150.954 324.786 151.024ZM186.054 72.3892C186.646 73.7766 186.89 76.3358 187.987 77.1973C188.403 77.2123 188.823 77.2431 189.239 77.2198C189.315 75.9968 189.547 74.4383 188.581 73.482C187.936 72.8427 186.931 72.5163 186.054 72.3892ZM223.899 373.039C224.222 373.794 224.579 374.115 225.378 374.406C226.951 374.978 228.968 374.632 230.587 374.452C230.337 373.721 230.344 373.645 229.68 373.174C227.798 372.863 225.817 373.179 223.899 373.039ZM339.876 173.133C339.103 174.911 338.323 176.531 337.166 178.091L337.262 178.414L337.456 178.481C338.883 177.962 339.881 177.491 340.513 175.986C340.783 175.341 340.768 174.363 340.453 173.733C340.3 173.428 340.15 173.306 339.876 173.133ZM206.044 223.582C205.349 223.956 205.008 224.195 204.595 224.874L204.611 225.497C205.006 225.788 205.125 225.929 205.646 225.885C206.113 225.846 206.579 225.544 206.986 225.325C207.793 225.054 208.41 224.904 208.953 224.208L208.845 223.779C208.04 223.335 207.482 223.441 206.591 223.527L206.249 223.559C206.18 223.565 206.112 223.574 206.044 223.582ZM186.642 81.2308C186.796 82.1039 187.004 82.4136 187.769 82.9095Q188.217 83.2016 188.706 83.42Q189.194 83.6384 189.711 83.7778Q190.228 83.9172 190.76 83.9742Q191.292 84.0312 191.826 84.0043C191.335 82.8218 190.306 82.2358 189.148 81.7819Q187.939 81.308 186.642 81.2308ZM192.522 70.5366L192.396 71.2342C193.211 72.2678 194.253 72.3745 195.501 72.5127C196.128 72.582 196.735 72.5705 197.364 72.5204C197.367 72.1297 197.475 71.917 197.19 71.6169C196.348 70.7283 193.733 70.6811 192.522 70.5366ZM204.933 356.132C204.48 356.733 204.162 357.115 204.098 357.88C204.454 358.679 204.789 358.97 205.581 359.355C206.056 358.871 206.376 358.62 206.326 357.866C206.292 357.353 205.918 356.741 205.518 356.444C205.331 356.306 205.14 356.228 204.933 356.132ZM187.038 78.8416C187.113 79.2952 187.016 79.4794 187.421 79.7511C188.201 80.2759 190.031 80.4121 190.932 80.1945C191.015 80.1743 191.097 80.1489 191.18 80.1261C190.87 79.4843 190.852 79.2328 190.158 78.9647C189.302 78.6342 187.97 78.8126 187.038 78.8416Z"/>
	<defs>
		<linearGradient id="gradient_1" gradientUnits="userSpaceOnUse" x1="188.82661" y1="375.26599" x2="190.54039" y2="374.77234">
			<stop offset="0" stop-color="white" stop-opacity="0.91764706"/>
			<stop offset="1" stop-color="white" stop-opacity="0.95686275"/>
		</linearGradient>
	</defs>
	<path fill="url(#gradient_1)" d="M186.294 373.048C186.934 373.614 187.561 373.982 188.325 374.36L188.652 374.222C188.421 373.825 188.173 373.46 188.117 372.994C188.074 372.642 188.325 372.497 188.534 372.239C188.903 373.362 189.271 374.345 190.433 374.857C191.208 375.199 192.217 375.336 193.052 375.445C192.956 375.504 192.863 375.565 192.766 375.622C192.323 375.883 191.858 375.917 191.356 375.969L191.12 376.261C191.866 377.28 193.117 376.521 193.618 378.033C191.375 377.527 189.39 376.654 187.365 375.578C186.936 374.771 186.629 373.896 186.294 373.048Z"/>
	<path fill="white" fill-opacity="0.95686275" d="M328.96 185.791C328.893 185.716 328.829 185.637 328.758 185.565C328.34 185.137 327.606 185.031 327.045 184.886L326.721 184.549L326.852 184.327C326.906 184.33 326.96 184.335 327.014 184.338C327.383 184.359 327.191 184.352 327.569 184.34C328.423 184.312 329.277 184.435 329.896 185.103C330.137 185.364 330.195 185.755 330.29 186.083C330.436 186.588 330.76 186.97 330.863 187.501C331.097 188.708 330.441 190.084 331.645 190.831C332.614 190.374 333.465 189.355 334.525 189.266C333.03 191.838 327.147 194.757 324.248 195.555C323.406 195.787 322.541 195.909 321.673 195.994C322.489 194.939 324.191 194.594 325.447 194.137L325.243 194.146C325.305 194.12 325.368 194.096 325.429 194.069C326.192 193.723 326.562 193.579 326.872 192.794C326.099 192.804 325.262 192.845 324.501 192.697C322.875 192.382 319.197 190.752 318.274 189.391C318.24 189.341 318.211 189.289 318.18 189.238C318.705 188.962 319.122 189.069 319.456 188.537C319.498 188.495 319.539 188.452 319.583 188.411C320.924 187.148 322.979 188.023 324.634 187.998C325.361 187.986 325.758 187.754 326.271 187.269C326.072 186.954 326.067 186.868 326.036 186.511C326.947 185.965 327.806 186.246 328.796 186.391L328.96 185.791ZM328.96 185.791L328.796 186.391C327.806 186.246 326.947 185.965 326.036 186.511C326.067 186.868 326.072 186.954 326.271 187.269C325.758 187.754 325.361 187.986 324.634 187.998C322.979 188.023 320.924 187.148 319.583 188.411C319.539 188.452 319.498 188.495 319.456 188.537C319.122 189.069 318.705 188.962 318.18 189.238C320.56 189.283 322.37 191.46 325.049 191.425C326.517 191.405 328.121 190.769 329.123 189.677C329.642 189.111 330.047 188.389 329.97 187.599C329.888 186.767 329.576 186.323 328.96 185.791Z"/>
	<path fill="white" fill-opacity="0.97254902" d="M328.96 185.791C329.576 186.323 329.888 186.767 329.97 187.599C330.047 188.389 329.642 189.111 329.123 189.677C328.121 190.769 326.517 191.405 325.049 191.425C322.37 191.46 320.56 189.283 318.18 189.238C318.705 188.962 319.122 189.069 319.456 188.537C319.498 188.495 319.539 188.452 319.583 188.411C320.924 187.148 322.979 188.023 324.634 187.998C325.361 187.986 325.758 187.754 326.271 187.269C326.072 186.954 326.067 186.868 326.036 186.511C326.947 185.965 327.806 186.246 328.796 186.391L328.96 185.791ZM326.271 187.269C325.758 187.754 325.361 187.986 324.634 187.998C322.979 188.023 320.924 187.148 319.583 188.411C319.539 188.452 319.498 188.495 319.456 188.537C320.721 189.074 322.956 189.665 324.322 189.667C325.154 189.668 326.459 189.487 327.036 188.809C327.439 188.335 327.415 188.048 327.348 187.462L326.947 187.143L326.271 187.269Z"/>
</svg>
